<svg version="1.1" viewBox="0.0 0.0 942.5748031496063 435.6430446194226" fill="none" stroke="none" stroke-linecap="square" stroke-miterlimit="10" xmlns:xlink="http://www.w3.org/1999/xlink" xmlns="http://www.w3.org/2000/svg"><clipPath id="p.0"><path d="m0 0l942.5748 0l0 435.64304l-942.5748 0l0 -435.64304z" clip-rule="nonzero"/></clipPath><g clip-path="url(#p.0)"><path fill="#ffffff" d="m0 0l942.5748 0l0 435.64304l-942.5748 0z" fill-rule="evenodd"/><path fill="#c9daf8" d="m118.50394 271.44095l807.74805 0l0 138.2992l-807.74805 0z" fill-rule="evenodd"/><path fill="#d9ead3" d="m110.0 25.690289l473.7323 0l0 122.267715l-473.7323 0z" fill-rule="evenodd"/><path fill="#efefef" d="m27.721785 142.60367l0 0c0 -12.080673 9.793329 -21.874008 21.874018 -21.874008q10.937008 0 21.874016 0q0 10.937012 0 21.874008l0 0c0 12.080688 -9.793331 21.874023 -21.874016 21.874023l0 0c-12.080688 0 -21.874018 -9.793335 -21.874018 -21.874023z" fill-rule="evenodd"/><path stroke="#666666" stroke-width="1.0" stroke-linejoin="round" stroke-linecap="butt" d="m27.721785 142.60367l0 0c0 -12.080673 9.793329 -21.874008 21.874018 -21.874008q10.937008 0 21.874016 0q0 10.937012 0 21.874008l0 0c0 12.080688 -9.793331 21.874023 -21.874016 21.874023l0 0c-12.080688 0 -21.874018 -9.793335 -21.874018 -21.874023z" fill-rule="evenodd"/><path fill="#efefef" d="m134.87007 305.89523l0 0c0 -5.752014 4.662918 -10.414917 10.414917 -10.414917l126.03633 0c2.762207 0 5.4112854 1.09729 7.364441 3.0504456c1.953186 1.953186 3.0504456 4.6022644 3.0504456 7.3644714l0 41.658356c0 5.752014 -4.662903 10.414917 -10.414886 10.414917l-126.03633 0c-5.751999 0 -10.414917 -4.662903 -10.414917 -10.414917z" fill-rule="evenodd"/><path stroke="#666666" stroke-width="1.0" stroke-linejoin="round" stroke-linecap="butt" d="m134.87007 305.89523l0 0c0 -5.752014 4.662918 -10.414917 10.414917 -10.414917l126.03633 0c2.762207 0 5.4112854 1.09729 7.364441 3.0504456c1.953186 1.953186 3.0504456 4.6022644 3.0504456 7.3644714l0 41.658356c0 5.752014 -4.662903 10.414917 -10.414886 10.414917l-126.03633 0c-5.751999 0 -10.414917 -4.662903 -10.414917 -10.414917z" fill-rule="evenodd"/><path fill="#000000" d="m172.05244 333.81628q-2.1875 0 -3.671875 -0.8125q-1.484375 -0.8125 -2.234375 -2.328125q-0.75 -1.515625 -0.75 -3.59375q0 -2.09375 0.796875 -3.59375q0.796875 -1.515625 2.28125 -2.34375q1.484375 -0.828125 3.578125 -0.828125q1.421875 0 2.484375 0.40625q1.078125 0.40625 1.90625 1.171875l-0.6875 1.5q-0.59375 -0.5 -1.15625 -0.796875q-0.5625 -0.296875 -1.15625 -0.4375q-0.59375 -0.140625 -1.390625 -0.140625q-2.265625 0 -3.4375 1.328125q-1.171875 1.328125 -1.171875 3.75q0 2.46875 1.125 3.75q1.125 1.28125 3.546875 1.28125q0.84375 0 1.65625 -0.15625q0.828125 -0.15625 1.59375 -0.46875l-0.375 0.90625l0 -4.3125l-3.25 0l0 -1.453125l4.875 0l0 6.21875q-0.859375 0.421875 -2.109375 0.6875q-1.234375 0.265625 -2.453125 0.265625zm11.696716 0q-2.28125 0 -3.59375 -1.28125q-1.296875 -1.296875 -1.296875 -3.578125q0 -1.46875 0.5625 -2.5625q0.578125 -1.109375 1.59375 -1.71875q1.015625 -0.609375 2.359375 -0.609375q1.3125 0 2.203125 0.5625q0.90625 0.5625 1.375 1.578125q0.46875 1.015625 0.46875 2.40625l0 0.59375l-7.09375 0l0 -1.078125l5.796875 0l-0.3125 0.234375q0 -1.390625 -0.625 -2.171875q-0.625 -0.78125 -1.796875 -0.78125q-1.3125 0 -2.015625 0.90625q-0.703125 0.90625 -0.703125 2.5l0 0.1875q0 1.65625 0.796875 2.5q0.8125 0.828125 2.3125 0.828125q0.8125 0 1.53125 -0.21875q0.71875 -0.234375 1.375 -0.78125l0.625 1.28125q-0.65625 0.578125 -1.59375 0.890625q-0.9375 0.3125 -1.96875 0.3125zm5.826935 -0.171875l0 -7.140625q0 -0.546875 -0.046875 -1.109375q-0.046875 -0.578125 -0.09375 -1.15625l1.828125 0l0.171875 1.984375l-0.234375 0q0.4375 -1.046875 1.328125 -1.59375q0.890625 -0.5625 2.078125 -0.5625q1.65625 0 2.5 0.921875q0.84375 0.90625 0.84375 2.828125l0 5.828125l-1.875 0l0 -5.703125q0 -1.25 -0.5 -1.796875q-0.484375 -0.5625 -1.5 -0.5625q-1.1875 0 -1.90625 0.75q-0.703125 0.734375 -0.703125 1.984375l0 5.328125l-1.890625 0zm15.422531 0.171875q-2.28125 0 -3.59375 -1.28125q-1.296875 -1.296875 -1.296875 -3.578125q0 -1.46875 0.5625 -2.5625q0.578125 -1.109375 1.59375 -1.71875q1.015625 -0.609375 2.359375 -0.609375q1.3125 0 2.203125 0.5625q0.90625 0.5625 1.375 1.578125q0.46875 1.015625 0.46875 2.40625l0 0.59375l-7.09375 0l0 -1.078125l5.796875 0l-0.3125 0.234375q0 -1.390625 -0.625 -2.171875q-0.625 -0.78125 -1.796875 -0.78125q-1.3125 0 -2.015625 0.90625q-0.703125 0.90625 -0.703125 2.5l0 0.1875q0 1.65625 0.796875 2.5q0.8125 0.828125 2.3125 0.828125q0.8125 0 1.53125 -0.21875q0.71875 -0.234375 1.375 -0.78125l0.625 1.28125q-0.65625 0.578125 -1.59375 0.890625q-0.9375 0.3125 -1.96875 0.3125zm5.795685 -0.171875l0 -7.078125q0 -0.578125 -0.03125 -1.15625q-0.03125 -0.59375 -0.078125 -1.171875l1.828125 0l0.203125 2.421875l-0.296875 0q0.1875 -0.875 0.625 -1.453125q0.453125 -0.578125 1.09375 -0.859375q0.640625 -0.28125 1.359375 -0.28125q0.296875 0 0.5 0.03125q0.203125 0.03125 0.40625 0.09375l-0.015625 1.671875q-0.3125 -0.125 -0.546875 -0.15625q-0.234375 -0.03125 -0.5625 -0.03125q-0.828125 0 -1.40625 0.375q-0.578125 0.359375 -0.875 0.984375q-0.296875 0.609375 -0.296875 1.3125l0 5.296875l-1.90625 0zm10.580688 0.171875q-1.25 0 -2.1875 -0.578125q-0.9375 -0.578125 -1.453125 -1.671875q-0.5 -1.109375 -0.5 -2.625q0 -1.53125 0.5 -2.609375q0.515625 -1.078125 1.453125 -1.671875q0.9375 -0.59375 2.1875 -0.59375q1.234375 0 2.140625 0.625q0.921875 0.609375 1.21875 1.671875l-0.203125 0l0.1875 -2.125l1.828125 0q-0.0625 0.578125 -0.109375 1.15625q-0.046875 0.5625 -0.046875 1.109375l0 7.140625l-1.890625 0l0 -2.09375l0.21875 0q-0.3125 1.046875 -1.234375 1.65625q-0.921875 0.609375 -2.109375 0.609375zm0.46875 -1.484375q1.203125 0 1.9375 -0.84375q0.75 -0.859375 0.75 -2.546875q0 -1.671875 -0.75 -2.515625q-0.734375 -0.859375 -1.9375 -0.859375q-1.234375 0 -1.96875 0.859375q-0.734375 0.84375 -0.734375 2.515625q0 1.6875 0.71875 2.546875q0.734375 0.84375 1.984375 0.84375zm10.939789 1.484375q-1.53125 0 -2.3125 -0.828125q-0.78125 -0.84375 -0.78125 -2.5l0 -4.796875l-1.828125 0l0 -1.453125l1.828125 0l0 -2.484375l1.890625 -0.5l0 2.984375l2.609375 0l0 1.453125l-2.609375 0l0 4.625q0 1.046875 0.375 1.5q0.375 0.453125 1.078125 0.453125q0.359375 0 0.625 -0.0625q0.265625 -0.078125 0.5 -0.171875l0 1.53125q-0.28125 0.109375 -0.65625 0.171875q-0.375 0.078125 -0.71875 0.078125zm7.053879 0q-1.390625 0 -2.421875 -0.578125q-1.03125 -0.59375 -1.59375 -1.6875q-0.546875 -1.09375 -0.546875 -2.609375q0 -1.515625 0.546875 -2.59375q0.5625 -1.09375 1.59375 -1.6875q1.03125 -0.59375 2.421875 -0.59375q1.40625 0 2.4375 0.59375q1.03125 0.59375 1.59375 1.6875q0.578125 1.078125 0.578125 2.59375q0 1.515625 -0.578125 2.609375q-0.5625 1.09375 -1.59375 1.6875q-1.03125 0.578125 -2.4375 0.578125zm0 -1.484375q1.234375 0 1.953125 -0.84375q0.734375 -0.859375 0.734375 -2.546875q0 -1.671875 -0.734375 -2.515625q-0.71875 -0.859375 -1.953125 -0.859375q-1.203125 0 -1.9375 0.859375q-0.71875 0.84375 -0.71875 2.515625q0 1.6875 0.703125 2.546875q0.71875 0.84375 1.953125 0.84375zm6.776779 1.3125l0 -7.078125q0 -0.578125 -0.03125 -1.15625q-0.03125 -0.59375 -0.078125 -1.171875l1.828125 0l0.203125 2.421875l-0.296875 0q0.1875 -0.875 0.625 -1.453125q0.453125 -0.578125 1.09375 -0.859375q0.640625 -0.28125 1.359375 -0.28125q0.296875 0 0.5 0.03125q0.203125 0.03125 0.40625 0.09375l-0.015625 1.671875q-0.3125 -0.125 -0.546875 -0.15625q-0.234375 -0.03125 -0.5625 -0.03125q-0.828125 0 -1.40625 0.375q-0.578125 0.359375 -0.875 0.984375q-0.296875 0.609375 -0.296875 1.3125l0 5.296875l-1.90625 0z" fill-rule="nonzero"/><path fill="#efefef" d="m405.68896 305.89523l0 0c0 -5.752014 4.6629333 -10.414917 10.414917 -10.414917l126.036316 0c2.762207 0 5.411316 1.09729 7.364441 3.0504456c1.953186 1.953186 3.050476 4.6022644 3.050476 7.3644714l0 41.658356c0 5.752014 -4.662903 10.414917 -10.414917 10.414917l-126.036316 0c-5.7519836 0 -10.414917 -4.662903 -10.414917 -10.414917z" fill-rule="evenodd"/><path stroke="#666666" stroke-width="1.0" stroke-linejoin="round" stroke-linecap="butt" d="m405.68896 305.89523l0 0c0 -5.752014 4.6629333 -10.414917 10.414917 -10.414917l126.036316 0c2.762207 0 5.411316 1.09729 7.364441 3.0504456c1.953186 1.953186 3.050476 4.6022644 3.050476 7.3644714l0 41.658356c0 5.752014 -4.662903 10.414917 -10.414917 10.414917l-126.036316 0c-5.7519836 0 -10.414917 -4.662903 -10.414917 -10.414917z" fill-rule="evenodd"/><path fill="#000000" d="m438.2511 333.81628q-1.578125 0 -2.875 -0.40625q-1.28125 -0.40625 -2.234375 -1.140625l0.65625 -1.53125q0.640625 0.484375 1.3125 0.796875q0.6875 0.3125 1.453125 0.484375q0.78125 0.15625 1.6875 0.15625q1.578125 0 2.3125 -0.5625q0.734375 -0.5625 0.734375 -1.46875q0 -0.796875 -0.515625 -1.21875q-0.515625 -0.4375 -1.796875 -0.6875l-2.03125 -0.421875q-1.8125 -0.359375 -2.703125 -1.203125q-0.890625 -0.859375 -0.890625 -2.328125q0 -1.203125 0.640625 -2.09375q0.640625 -0.890625 1.765625 -1.375q1.125 -0.5 2.640625 -0.5q1.390625 0 2.5625 0.40625q1.1875 0.40625 1.984375 1.1875l-0.625 1.46875q-0.84375 -0.71875 -1.796875 -1.0625q-0.953125 -0.34375 -2.171875 -0.34375q-1.421875 0 -2.234375 0.59375q-0.8125 0.59375 -0.8125 1.625q0 0.8125 0.5 1.28125q0.515625 0.46875 1.71875 0.703125l2.03125 0.390625q1.875 0.40625 2.765625 1.21875q0.90625 0.796875 0.90625 2.21875q0 1.140625 -0.609375 2.0q-0.609375 0.859375 -1.734375 1.34375q-1.109375 0.46875 -2.640625 0.46875zm10.543762 0q-1.703125 0 -2.546875 -0.921875q-0.84375 -0.921875 -0.84375 -2.84375l0 -5.8125l1.875 0l0 5.765625q0 1.171875 0.484375 1.734375q0.484375 0.5625 1.484375 0.5625q1.109375 0 1.796875 -0.734375q0.703125 -0.75 0.703125 -1.984375l0 -5.34375l1.875 0l0 9.40625l-1.828125 0l0 -2.015625l0.25 0q-0.390625 1.046875 -1.25 1.625q-0.859375 0.5625 -2.0 0.5625zm7.5888367 3.859375l0 -11.171875q0 -0.546875 -0.046875 -1.109375q-0.046875 -0.578125 -0.09375 -1.15625l1.828125 0l0.1875 2.125l-0.203125 0q0.296875 -1.0625 1.203125 -1.671875q0.90625 -0.625 2.15625 -0.625q1.25 0 2.171875 0.59375q0.9375 0.59375 1.453125 1.671875q0.515625 1.078125 0.515625 2.609375q0 1.515625 -0.515625 2.625q-0.515625 1.09375 -1.453125 1.671875q-0.921875 0.578125 -2.171875 0.578125q-1.234375 0 -2.140625 -0.609375q-0.90625 -0.609375 -1.203125 -1.65625l0.203125 0l0 6.125l-1.890625 0zm4.5625 -5.34375q1.21875 0 1.953125 -0.84375q0.75 -0.859375 0.75 -2.546875q0 -1.671875 -0.75 -2.515625q-0.734375 -0.859375 -1.953125 -0.859375q-1.234375 0 -1.96875 0.859375q-0.734375 0.84375 -0.734375 2.515625q0 1.6875 0.734375 2.546875q0.734375 0.84375 1.96875 0.84375zm11.158539 1.484375q-2.28125 0 -3.59375 -1.28125q-1.296875 -1.296875 -1.296875 -3.578125q0 -1.46875 0.5625 -2.5625q0.578125 -1.109375 1.59375 -1.71875q1.015625 -0.609375 2.359375 -0.609375q1.3125 0 2.203125 0.5625q0.90625 0.5625 1.375 1.578125q0.46875 1.015625 0.46875 2.40625l0 0.59375l-7.09375 0l0 -1.078125l5.796875 0l-0.3125 0.234375q0 -1.390625 -0.625 -2.171875q-0.625 -0.78125 -1.796875 -0.78125q-1.3125 0 -2.015625 0.90625q-0.703125 0.90625 -0.703125 2.5l0 0.1875q0 1.65625 0.796875 2.5q0.8125 0.828125 2.3125 0.828125q0.8125 0 1.53125 -0.21875q0.71875 -0.234375 1.375 -0.78125l0.625 1.28125q-0.65625 0.578125 -1.59375 0.890625q-0.9375 0.3125 -1.96875 0.3125zm5.795685 -0.171875l0 -7.078125q0 -0.578125 -0.03125 -1.15625q-0.03125 -0.59375 -0.078125 -1.171875l1.828125 0l0.203125 2.421875l-0.296875 0q0.1875 -0.875 0.625 -1.453125q0.453125 -0.578125 1.09375 -0.859375q0.640625 -0.28125 1.359375 -0.28125q0.296875 0 0.5 0.03125q0.203125 0.03125 0.40625 0.09375l-0.015625 1.671875q-0.3125 -0.125 -0.546875 -0.15625q-0.234375 -0.03125 -0.5625 -0.03125q-0.828125 0 -1.40625 0.375q-0.578125 0.359375 -0.875 0.984375q-0.296875 0.609375 -0.296875 1.3125l0 5.296875l-1.90625 0zm10.390289 0l-4.03125 -9.40625l2.015625 0l3.171875 7.859375l-0.546875 0l3.234375 -7.859375l1.921875 0l-4.046875 9.40625l-1.71875 0zm7.252777 0l0 -9.40625l1.890625 0l0 9.40625l-1.890625 0zm-0.140625 -11.359375l0 -1.96875l2.1875 0l0 1.96875l-2.1875 0zm8.020386 11.53125q-1.171875 0 -2.171875 -0.296875q-0.984375 -0.296875 -1.640625 -0.84375l0.578125 -1.28125q0.703125 0.515625 1.53125 0.78125q0.84375 0.25 1.71875 0.25q1.03125 0 1.546875 -0.359375q0.53125 -0.359375 0.53125 -1.0q0 -0.484375 -0.328125 -0.78125q-0.328125 -0.296875 -1.078125 -0.453125l-1.796875 -0.34375q-1.1875 -0.265625 -1.8125 -0.890625q-0.609375 -0.640625 -0.609375 -1.625q0 -0.84375 0.453125 -1.5q0.46875 -0.65625 1.3125 -1.03125q0.84375 -0.375 1.984375 -0.375q1.046875 0 1.9375 0.3125q0.90625 0.296875 1.5 0.859375l-0.59375 1.25q-0.578125 -0.5 -1.3125 -0.765625q-0.71875 -0.265625 -1.46875 -0.265625q-1.046875 0 -1.5625 0.390625q-0.5 0.390625 -0.5 1.03125q0 0.484375 0.3125 0.796875q0.3125 0.296875 0.984375 0.46875l1.78125 0.34375q1.28125 0.265625 1.90625 0.875q0.640625 0.59375 0.640625 1.59375q0 0.875 -0.484375 1.53125q-0.484375 0.65625 -1.34375 1.0q-0.859375 0.328125 -2.015625 0.328125zm10.087677 0q-1.390625 0 -2.4218445 -0.578125q-1.03125 -0.59375 -1.59375 -1.6875q-0.546875 -1.09375 -0.546875 -2.609375q0 -1.515625 0.546875 -2.59375q0.5625 -1.09375 1.59375 -1.6875q1.0312195 -0.59375 2.4218445 -0.59375q1.40625 0 2.4375 0.59375q1.03125 0.59375 1.59375 1.6875q0.578125 1.078125 0.578125 2.59375q0 1.515625 -0.578125 2.609375q-0.5625 1.09375 -1.59375 1.6875q-1.03125 0.578125 -2.4375 0.578125zm0 -1.484375q1.234375 0 1.953125 -0.84375q0.734375 -0.859375 0.734375 -2.546875q0 -1.671875 -0.734375 -2.515625q-0.71875 -0.859375 -1.953125 -0.859375q-1.203125 0 -1.9374695 0.859375q-0.71875 0.84375 -0.71875 2.515625q0 1.6875 0.703125 2.546875q0.7187195 0.84375 1.9530945 0.84375zm6.7767944 1.3125l0 -7.078125q0 -0.578125 -0.03125 -1.15625q-0.03125 -0.59375 -0.078125 -1.171875l1.828125 0l0.203125 2.421875l-0.296875 0q0.1875 -0.875 0.625 -1.453125q0.453125 -0.578125 1.09375 -0.859375q0.640625 -0.28125 1.359375 -0.28125q0.296875 0 0.5 0.03125q0.203125 0.03125 0.40625 0.09375l-0.015625 1.671875q-0.3125 -0.125 -0.546875 -0.15625q-0.234375 -0.03125 -0.5625 -0.03125q-0.828125 0 -1.40625 0.375q-0.578125 0.359375 -0.875 0.984375q-0.296875 0.609375 -0.296875 1.3125l0 5.296875l-1.90625 0z" fill-rule="nonzero"/><path fill="#efefef" d="m133.18898 74.399155l0 0c0 -5.7519913 4.662903 -10.414902 10.414902 -10.414902l126.036316 0c2.762207 0 5.4112854 1.0972824 7.3644714 3.0504532c1.9531555 1.9531784 3.0504456 4.602249 3.0504456 7.3644485l0 41.65838c0 5.751999 -4.662903 10.414909 -10.414917 10.414909l-126.036316 0c-5.751999 0 -10.414902 -4.6629105 -10.414902 -10.414909z" fill-rule="evenodd"/><path stroke="#666666" stroke-width="1.0" stroke-linejoin="round" stroke-linecap="butt" d="m133.18898 74.399155l0 0c0 -5.7519913 4.662903 -10.414902 10.414902 -10.414902l126.036316 0c2.762207 0 5.4112854 1.0972824 7.3644714 3.0504532c1.9531555 1.9531784 3.0504456 4.602249 3.0504456 7.3644485l0 41.65838c0 5.751999 -4.662903 10.414909 -10.414917 10.414909l-126.036316 0c-5.751999 0 -10.414902 -4.6629105 -10.414902 -10.414909z" fill-rule="evenodd"/><path fill="#000000" d="m172.85269 102.148346l0 -13.15625l8.625 0l0 1.546875l-6.734375 0l0 4.140625l6.296875 0l0 1.578125l-6.296875 0l0 4.328125l6.734375 0l0 1.5625l-8.625 0zm10.853973 0l0 -7.140625q0 -0.546875 -0.046875 -1.109375q-0.046875 -0.578125 -0.09375 -1.15625l1.828125 0l0.171875 1.984375l-0.234375 0q0.4375 -1.046875 1.328125 -1.59375q0.890625 -0.5625 2.078125 -0.5625q1.65625 0 2.5 0.921875q0.84375 0.90625 0.84375 2.828125l0 5.828125l-1.875 0l0 -5.703125q0 -1.25 -0.5 -1.796875q-0.484375 -0.5625 -1.5 -0.5625q-1.1875 0 -1.90625 0.75q-0.703125 0.734375 -0.703125 1.984375l0 5.328125l-1.890625 0zm15.188156 0.171875q-1.421875 0 -2.46875 -0.578125q-1.046875 -0.59375 -1.625 -1.703125q-0.5625 -1.125 -0.5625 -2.640625q0 -1.515625 0.578125 -2.59375q0.578125 -1.09375 1.609375 -1.65625q1.046875 -0.578125 2.46875 -0.578125q0.921875 0 1.78125 0.3125q0.859375 0.3125 1.40625 0.875l-0.609375 1.3125q-0.515625 -0.5 -1.171875 -0.75q-0.65625 -0.25 -1.265625 -0.25q-1.34375 0 -2.109375 0.859375q-0.765625 0.859375 -0.765625 2.484375q0 1.640625 0.765625 2.515625q0.765625 0.875 2.109375 0.875q0.59375 0 1.234375 -0.234375q0.65625 -0.234375 1.203125 -0.75l0.609375 1.328125q-0.578125 0.546875 -1.453125 0.859375q-0.859375 0.3125 -1.734375 0.3125zm9.029053 0q-1.390625 0 -2.421875 -0.578125q-1.03125 -0.59375 -1.59375 -1.6875q-0.546875 -1.09375 -0.546875 -2.609375q0 -1.515625 0.546875 -2.59375q0.5625 -1.09375 1.59375 -1.6875q1.03125 -0.59375 2.421875 -0.59375q1.40625 0 2.4375 0.59375q1.03125 0.59375 1.59375 1.6875q0.578125 1.078125 0.578125 2.59375q0 1.515625 -0.578125 2.609375q-0.5625 1.09375 -1.59375 1.6875q-1.03125 0.578125 -2.4375 0.578125zm0 -1.484375q1.234375 0 1.953125 -0.84375q0.734375 -0.859375 0.734375 -2.546875q0 -1.671875 -0.734375 -2.515625q-0.71875 -0.859375 -1.953125 -0.859375q-1.203125 0 -1.9375 0.859375q-0.71875 0.84375 -0.71875 2.515625q0 1.6875 0.703125 2.546875q0.71875 0.84375 1.953125 0.84375zm10.417404 1.484375q-1.234375 0 -2.1875 -0.578125q-0.9375 -0.578125 -1.453125 -1.671875q-0.5 -1.109375 -0.5 -2.625q0 -1.53125 0.5 -2.609375q0.515625 -1.078125 1.453125 -1.671875q0.953125 -0.59375 2.1875 -0.59375q1.203125 0 2.125 0.609375q0.9375 0.609375 1.234375 1.65625l-0.234375 0l0 -6.421875l1.890625 0l0 13.734375l-1.859375 0l0 -2.125l0.21875 0q-0.3125 1.0625 -1.234375 1.6875q-0.90625 0.609375 -2.140625 0.609375zm0.46875 -1.484375q1.203125 0 1.953125 -0.84375q0.75 -0.859375 0.75 -2.546875q0 -1.671875 -0.75 -2.515625q-0.75 -0.859375 -1.953125 -0.859375q-1.234375 0 -1.96875 0.859375q-0.734375 0.84375 -0.734375 2.515625q0 1.6875 0.734375 2.546875q0.734375 0.84375 1.96875 0.84375zm11.642914 1.484375q-2.28125 0 -3.59375 -1.28125q-1.296875 -1.296875 -1.296875 -3.578125q0 -1.46875 0.5625 -2.5625q0.578125 -1.109375 1.59375 -1.71875q1.015625 -0.609375 2.359375 -0.609375q1.3125 0 2.203125 0.5625q0.90625 0.5625 1.375 1.578125q0.46875 1.015625 0.46875 2.40625l0 0.59375l-7.09375 0l0 -1.078125l5.796875 0l-0.3125 0.234375q0 -1.390625 -0.625 -2.171875q-0.625 -0.78125 -1.796875 -0.78125q-1.3125 0 -2.015625 0.90625q-0.703125 0.90625 -0.703125 2.5l0 0.1875q0 1.65625 0.796875 2.5q0.8125 0.828125 2.3125 0.828125q0.8125 0 1.53125 -0.21875q0.71875 -0.234375 1.375 -0.78125l0.625 1.28125q-0.65625 0.578125 -1.59375 0.890625q-0.9375 0.3125 -1.96875 0.3125zm5.795685 -0.171875l0 -7.078125q0 -0.578125 -0.03125 -1.15625q-0.03125 -0.59375 -0.078125 -1.171875l1.828125 0l0.203125 2.421875l-0.296875 0q0.1875 -0.875 0.625 -1.453125q0.453125 -0.578125 1.09375 -0.859375q0.640625 -0.28125 1.359375 -0.28125q0.296875 0 0.5 0.03125q0.203125 0.03125 0.40625 0.09375l-0.015625 1.671875q-0.3125 -0.125 -0.546875 -0.15625q-0.234375 -0.03125 -0.5625 -0.03125q-0.828125 0 -1.40625 0.375q-0.578125 0.359375 -0.875 0.984375q-0.296875 0.609375 -0.296875 1.3125l0 5.296875l-1.90625 0z" fill-rule="nonzero"/><path fill="#efefef" d="m407.78217 74.399155l0 0c0 -5.7519913 4.662903 -10.414902 10.414886 -10.414902l126.03635 0c2.762207 0 5.411255 1.0972824 7.364441 3.0504532c1.953186 1.9531784 3.050476 4.602249 3.050476 7.3644485l0 41.65838c0 5.751999 -4.662964 10.414909 -10.414917 10.414909l-126.03635 0c-5.7519836 0 -10.414886 -4.6629105 -10.414886 -10.414909z" fill-rule="evenodd"/><path stroke="#666666" stroke-width="1.0" stroke-linejoin="round" stroke-linecap="butt" d="m407.78217 74.399155l0 0c0 -5.7519913 4.662903 -10.414902 10.414886 -10.414902l126.03635 0c2.762207 0 5.411255 1.0972824 7.364441 3.0504532c1.953186 1.9531784 3.050476 4.602249 3.050476 7.3644485l0 41.65838c0 5.751999 -4.662964 10.414909 -10.414917 10.414909l-126.03635 0c-5.7519836 0 -10.414886 -4.6629105 -10.414886 -10.414909z" fill-rule="evenodd"/><path fill="#000000" d="m446.3638 102.148346l0 -13.15625l4.546875 0q2.234375 0 3.765625 0.765625q1.546875 0.765625 2.328125 2.234375q0.796875 1.46875 0.796875 3.578125q0 2.078125 -0.796875 3.5625q-0.78125 1.46875 -2.328125 2.25q-1.53125 0.765625 -3.765625 0.765625l-4.546875 0zm1.9375 -1.625l2.5 0q2.546875 0 3.78125 -1.21875q1.234375 -1.234375 1.234375 -3.734375q0 -2.5 -1.234375 -3.71875q-1.234375 -1.234375 -3.78125 -1.234375l-2.5 0l0 9.90625zm16.316833 1.796875q-2.28125 0 -3.59375 -1.28125q-1.296875 -1.296875 -1.296875 -3.578125q0 -1.46875 0.5625 -2.5625q0.578125 -1.109375 1.59375 -1.71875q1.015625 -0.609375 2.359375 -0.609375q1.3125 0 2.203125 0.5625q0.90625 0.5625 1.375 1.578125q0.46875 1.015625 0.46875 2.40625l0 0.59375l-7.09375 0l0 -1.078125l5.796875 0l-0.3125 0.234375q0 -1.390625 -0.625 -2.171875q-0.625 -0.78125 -1.796875 -0.78125q-1.3125 0 -2.015625 0.90625q-0.703125 0.90625 -0.703125 2.5l0 0.1875q0 1.65625 0.796875 2.5q0.8125 0.828125 2.3125 0.828125q0.8125 0 1.53125 -0.21875q0.71875 -0.234375 1.375 -0.78125l0.625 1.28125q-0.65625 0.578125 -1.59375 0.890625q-0.9375 0.3125 -1.96875 0.3125zm9.951935 0q-1.421875 0 -2.46875 -0.578125q-1.046875 -0.59375 -1.625 -1.703125q-0.5625 -1.125 -0.5625 -2.640625q0 -1.515625 0.578125 -2.59375q0.578125 -1.09375 1.609375 -1.65625q1.046875 -0.578125 2.46875 -0.578125q0.921875 0 1.78125 0.3125q0.859375 0.3125 1.40625 0.875l-0.609375 1.3125q-0.515625 -0.5 -1.171875 -0.75q-0.65625 -0.25 -1.265625 -0.25q-1.34375 0 -2.109375 0.859375q-0.765625 0.859375 -0.765625 2.484375q0 1.640625 0.765625 2.515625q0.765625 0.875 2.109375 0.875q0.59375 0 1.234375 -0.234375q0.65625 -0.234375 1.203125 -0.75l0.609375 1.328125q-0.578125 0.546875 -1.453125 0.859375q-0.859375 0.3125 -1.734375 0.3125zm9.029053 0q-1.390625 0 -2.421875 -0.578125q-1.03125 -0.59375 -1.59375 -1.6875q-0.546875 -1.09375 -0.546875 -2.609375q0 -1.515625 0.546875 -2.59375q0.5625 -1.09375 1.59375 -1.6875q1.03125 -0.59375 2.421875 -0.59375q1.40625 0 2.4375 0.59375q1.03125 0.59375 1.59375 1.6875q0.578125 1.078125 0.578125 2.59375q0 1.515625 -0.578125 2.609375q-0.5625 1.09375 -1.59375 1.6875q-1.03125 0.578125 -2.4375 0.578125zm0 -1.484375q1.234375 0 1.953125 -0.84375q0.734375 -0.859375 0.734375 -2.546875q0 -1.671875 -0.734375 -2.515625q-0.71875 -0.859375 -1.953125 -0.859375q-1.203125 0 -1.9375 0.859375q-0.71875 0.84375 -0.71875 2.515625q0 1.6875 0.703125 2.546875q0.71875 0.84375 1.953125 0.84375zm10.417389 1.484375q-1.234375 0 -2.1875 -0.578125q-0.9375 -0.578125 -1.453125 -1.671875q-0.5 -1.109375 -0.5 -2.625q0 -1.53125 0.5 -2.609375q0.515625 -1.078125 1.453125 -1.671875q0.953125 -0.59375 2.1875 -0.59375q1.203125 0 2.125 0.609375q0.9375 0.609375 1.234375 1.65625l-0.234375 0l0 -6.421875l1.890625 0l0 13.734375l-1.859375 0l0 -2.125l0.21875 0q-0.3125 1.0625 -1.234375 1.6875q-0.90625 0.609375 -2.140625 0.609375zm0.46875 -1.484375q1.203125 0 1.953125 -0.84375q0.75 -0.859375 0.75 -2.546875q0 -1.671875 -0.75 -2.515625q-0.75 -0.859375 -1.953125 -0.859375q-1.234375 0 -1.96875 0.859375q-0.734375 0.84375 -0.734375 2.515625q0 1.6875 0.734375 2.546875q0.734375 0.84375 1.96875 0.84375zm11.642914 1.484375q-2.28125 0 -3.59375 -1.28125q-1.296875 -1.296875 -1.296875 -3.578125q0 -1.46875 0.5625 -2.5625q0.578125 -1.109375 1.59375 -1.71875q1.015625 -0.609375 2.359375 -0.609375q1.3125 0 2.203125 0.5625q0.90625 0.5625 1.375 1.578125q0.46875 1.015625 0.46875 2.40625l0 0.59375l-7.09375 0l0 -1.078125l5.796875 0l-0.3125 0.234375q0 -1.390625 -0.625 -2.171875q-0.625 -0.78125 -1.796875 -0.78125q-1.3125 0 -2.015625 0.90625q-0.703125 0.90625 -0.703125 2.5l0 0.1875q0 1.65625 0.796875 2.5q0.8125 0.828125 2.3125 0.828125q0.8125 0 1.53125 -0.21875q0.71875 -0.234375 1.375 -0.78125l0.625 1.28125q-0.65625 0.578125 -1.59375 0.890625q-0.9375 0.3125 -1.96875 0.3125zm5.795685 -0.171875l0 -7.078125q0 -0.578125 -0.03125 -1.15625q-0.03125 -0.59375 -0.078125 -1.171875l1.8281555 0l0.203125 2.421875l-0.296875 0q0.1875 -0.875 0.625 -1.453125q0.453125 -0.578125 1.09375 -0.859375q0.640625 -0.28125 1.359375 -0.28125q0.296875 0 0.5 0.03125q0.203125 0.03125 0.40625 0.09375l-0.015625 1.671875q-0.3125 -0.125 -0.546875 -0.15625q-0.234375 -0.03125 -0.5625 -0.03125q-0.828125 0 -1.40625 0.375q-0.578125 0.359375 -0.875 0.984375q-0.296875 0.609375 -0.296875 1.3125l0 5.296875l-1.9062805 0z" fill-rule="nonzero"/><path fill="#efefef" d="m765.60895 308.4283l0 0c0 -6.8160095 5.5254517 -12.341461 12.341431 -12.341461l122.18323 0c3.2731323 0 6.4122314 1.3002625 8.726746 3.6147156c2.3144531 2.3144836 3.614685 5.453583 3.614685 8.726746l0 49.36432c0 6.8160095 -5.5254517 12.341461 -12.341431 12.341461l-122.18323 0c-6.815979 0 -12.341431 -5.5254517 -12.341431 -12.341461z" fill-rule="evenodd"/><path stroke="#666666" stroke-width="1.0" stroke-linejoin="round" stroke-linecap="butt" d="m765.60895 308.4283l0 0c0 -6.8160095 5.5254517 -12.341461 12.341431 -12.341461l122.18323 0c3.2731323 0 6.4122314 1.3002625 8.726746 3.6147156c2.3144531 2.3144836 3.614685 5.453583 3.614685 8.726746l0 49.36432c0 6.8160095 -5.5254517 12.341461 -12.341431 12.341461l-122.18323 0c-6.815979 0 -12.341431 -5.5254517 -12.341431 -12.341461z" fill-rule="evenodd"/><path fill="#000000" d="m809.56635 328.75046l0 -12.21875l7.828125 0l0 1.4375l-6.03125 0l0 3.921875l5.640625 0l0 1.4375l-5.640625 0l0 5.421875l-1.796875 0zm13.3706665 0.15625q-2.109375 0 -3.328125 -1.1875q-1.203125 -1.203125 -1.203125 -3.3125q0 -1.375 0.53125 -2.390625q0.53125 -1.03125 1.46875 -1.59375q0.9375 -0.5625 2.1875 -0.5625q1.234375 0 2.0625 0.53125q0.828125 0.515625 1.265625 1.46875q0.4375 0.9375 0.4375 2.21875l0 0.546875l-6.578125 0l0 -1.0l5.375 0l-0.28125 0.21875q0 -1.296875 -0.59375 -2.015625q-0.578125 -0.71875 -1.671875 -0.71875q-1.203125 0 -1.875 0.84375q-0.65625 0.84375 -0.65625 2.3125l0 0.171875q0 1.546875 0.75 2.328125q0.765625 0.765625 2.15625 0.765625q0.75 0 1.421875 -0.203125q0.671875 -0.21875 1.28125 -0.734375l0.5625 1.203125q-0.609375 0.53125 -1.46875 0.828125q-0.859375 0.28125 -1.84375 0.28125zm8.773621 0q-1.15625 0 -2.03125 -0.53125q-0.859375 -0.546875 -1.34375 -1.5625q-0.46875 -1.03125 -0.46875 -2.421875q0 -1.421875 0.46875 -2.421875q0.484375 -1.015625 1.34375 -1.5625q0.875 -0.546875 2.03125 -0.546875q1.140625 0 1.984375 0.578125q0.859375 0.5625 1.140625 1.546875l-0.1875 0l0.171875 -1.96875l1.6875 0q-0.046875 0.53125 -0.09375 1.0625q-0.046875 0.53125 -0.046875 1.03125l0 6.640625l-1.75 0l0 -1.9375l0.203125 0q-0.28125 0.96875 -1.140625 1.53125q-0.859375 0.5625 -1.96875 0.5625zm0.4375 -1.375q1.125 0 1.8125 -0.796875q0.6875 -0.796875 0.6875 -2.34375q0 -1.5625 -0.6875 -2.34375q-0.6875 -0.796875 -1.8125 -0.796875q-1.140625 0 -1.828125 0.796875q-0.6875 0.78125 -0.6875 2.34375q0 1.546875 0.671875 2.34375q0.6875 0.796875 1.84375 0.796875zm10.16217 1.375q-1.421875 0 -2.15625 -0.765625q-0.71875 -0.78125 -0.71875 -2.3125l0 -4.453125l-1.6875 0l0 -1.359375l1.6875 0l0 -2.296875l1.75 -0.46875l0 2.765625l2.4375 0l0 1.359375l-2.4375 0l0 4.296875q0 0.96875 0.34375 1.390625q0.359375 0.40625 1.015625 0.40625q0.328125 0 0.578125 -0.0625q0.25 -0.0625 0.453125 -0.140625l0 1.421875q-0.25 0.09375 -0.609375 0.15625q-0.34375 0.0625 -0.65625 0.0625zm6.008789 0q-1.578125 0 -2.375 -0.859375q-0.78125 -0.859375 -0.78125 -2.640625l0 -5.390625l1.75 0l0 5.359375q0 1.09375 0.4375 1.609375q0.453125 0.515625 1.375 0.515625q1.046875 0 1.6875 -0.6875q0.640625 -0.703125 0.640625 -1.84375l0 -4.953125l1.75 0l0 8.734375l-1.703125 0l0 -1.875l0.234375 0q-0.375 0.96875 -1.171875 1.5q-0.796875 0.53125 -1.84375 0.53125zm7.013611 -0.15625l0 -6.5625q0 -0.546875 -0.03125 -1.09375q-0.015625 -0.546875 -0.078125 -1.078125l1.703125 0l0.1875 2.25l-0.28125 0q0.171875 -0.8125 0.59375 -1.34375q0.421875 -0.546875 1.015625 -0.796875q0.59375 -0.265625 1.25 -0.265625q0.28125 0 0.46875 0.03125q0.1875 0.015625 0.390625 0.078125l-0.015625 1.5625q-0.296875 -0.125 -0.515625 -0.15625q-0.21875 -0.03125 -0.53125 -0.03125q-0.765625 0 -1.3125 0.34375q-0.53125 0.34375 -0.8125 0.921875q-0.265625 0.5625 -0.265625 1.21875l0 4.921875l-1.765625 0zm10.473816 0.15625q-2.109375 0 -3.328125 -1.1875q-1.203125 -1.203125 -1.203125 -3.3125q0 -1.375 0.53125 -2.390625q0.53125 -1.03125 1.46875 -1.59375q0.9375 -0.5625 2.1875 -0.5625q1.234375 0 2.0625 0.53125q0.828125 0.515625 1.265625 1.46875q0.4375 0.9375 0.4375 2.21875l0 0.546875l-6.578125 0l0 -1.0l5.375 0l-0.28125 0.21875q0 -1.296875 -0.59375 -2.015625q-0.578125 -0.71875 -1.671875 -0.71875q-1.203125 0 -1.875 0.84375q-0.65625 0.84375 -0.65625 2.3125l0 0.171875q0 1.546875 0.75 2.328125q0.765625 0.765625 2.15625 0.765625q0.75 0 1.421875 -0.203125q0.671875 -0.21875 1.28125 -0.734375l0.5625 1.203125q-0.609375 0.53125 -1.46875 0.828125q-0.859375 0.28125 -1.84375 0.28125z" fill-rule="nonzero"/><path fill="#000000" d="m786.06085 349.75046l0 -12.21875l4.234375 0q2.0625 0 3.484375 0.71875q1.4375 0.703125 2.171875 2.0625q0.734375 1.359375 0.734375 3.328125q0 1.9375 -0.734375 3.3125q-0.734375 1.359375 -2.171875 2.078125q-1.421875 0.71875 -3.484375 0.71875l-4.234375 0zm1.796875 -1.5l2.328125 0q2.359375 0 3.5 -1.140625q1.15625 -1.15625 1.15625 -3.46875q0 -2.328125 -1.15625 -3.453125q-1.140625 -1.140625 -3.5 -1.140625l-2.328125 0l0 9.203125zm11.112183 1.5l0 -8.734375l1.75 0l0 8.734375l-1.75 0zm-0.140625 -10.546875l0 -1.828125l2.03125 0l0 1.828125l-2.03125 0zm7.4553223 10.703125q-1.09375 0 -2.015625 -0.28125q-0.90625 -0.28125 -1.515625 -0.78125l0.53125 -1.1875q0.640625 0.484375 1.421875 0.734375q0.78125 0.234375 1.59375 0.234375q0.953125 0 1.4375 -0.328125q0.484375 -0.34375 0.484375 -0.9375q0 -0.453125 -0.3125 -0.71875q-0.296875 -0.28125 -0.984375 -0.421875l-1.671875 -0.328125q-1.09375 -0.25 -1.671875 -0.828125q-0.578125 -0.59375 -0.578125 -1.515625q0 -0.78125 0.421875 -1.390625q0.4375 -0.609375 1.21875 -0.953125q0.796875 -0.34375 1.84375 -0.34375q0.96875 0 1.796875 0.28125q0.84375 0.28125 1.390625 0.796875l-0.546875 1.15625q-0.546875 -0.453125 -1.21875 -0.703125q-0.671875 -0.25 -1.359375 -0.25q-0.984375 0 -1.453125 0.375q-0.453125 0.359375 -0.453125 0.9375q0 0.453125 0.28125 0.75q0.28125 0.28125 0.90625 0.4375l1.671875 0.328125q1.171875 0.234375 1.75 0.796875q0.59375 0.546875 0.59375 1.484375q0 0.8125 -0.453125 1.421875q-0.4375 0.609375 -1.234375 0.921875q-0.796875 0.3125 -1.875 0.3125zm9.4574585 0q-1.3125 0 -2.296875 -0.546875q-0.96875 -0.546875 -1.5 -1.578125q-0.53125 -1.03125 -0.53125 -2.453125q0 -1.40625 0.53125 -2.40625q0.546875 -1.0 1.515625 -1.53125q0.96875 -0.53125 2.28125 -0.53125q0.84375 0 1.640625 0.296875q0.8125 0.28125 1.328125 0.796875l-0.578125 1.234375q-0.484375 -0.46875 -1.09375 -0.703125q-0.59375 -0.234375 -1.171875 -0.234375q-1.25 0 -1.96875 0.796875q-0.703125 0.796875 -0.703125 2.296875q0 1.53125 0.703125 2.34375q0.71875 0.8125 1.96875 0.8125q0.546875 0 1.15625 -0.21875q0.609375 -0.21875 1.109375 -0.703125l0.578125 1.234375q-0.546875 0.515625 -1.359375 0.8125q-0.796875 0.28125 -1.609375 0.28125zm4.7873535 -0.15625l0 -6.5625q0 -0.546875 -0.03125 -1.09375q-0.015625 -0.546875 -0.078125 -1.078125l1.703125 0l0.1875 2.25l-0.28125 0q0.171875 -0.8125 0.59375 -1.34375q0.421875 -0.546875 1.015625 -0.796875q0.59375 -0.265625 1.25 -0.265625q0.28125 0 0.46875 0.03125q0.1875 0.015625 0.390625 0.078125l-0.015625 1.5625q-0.296875 -0.125 -0.515625 -0.15625q-0.21875 -0.03125 -0.53125 -0.03125q-0.765625 0 -1.3125 0.34375q-0.53125 0.34375 -0.8125 0.921875q-0.265625 0.5625 -0.265625 1.21875l0 4.921875l-1.765625 0zm6.563904 0l0 -8.734375l1.75 0l0 8.734375l-1.75 0zm-0.140625 -10.546875l0 -1.828125l2.03125 0l0 1.828125l-2.03125 0zm4.4553223 10.546875l0 -6.640625q0 -0.5 -0.046875 -1.03125q-0.03125 -0.53125 -0.09375 -1.0625l1.703125 0l0.15625 1.84375l-0.203125 0q0.359375 -0.953125 1.109375 -1.46875q0.75 -0.53125 1.8125 -0.53125q1.078125 0 1.75 0.515625q0.6875 0.515625 0.953125 1.5625l-0.28125 0q0.34375 -0.953125 1.171875 -1.515625q0.84375 -0.5625 1.9375 -0.5625q1.453125 0 2.171875 0.859375q0.734375 0.84375 0.734375 2.625l0 5.40625l-1.75 0l0 -5.3125q0 -1.15625 -0.390625 -1.65625q-0.390625 -0.515625 -1.25 -0.515625q-1.015625 0 -1.609375 0.703125q-0.578125 0.6875 -0.578125 1.859375l0 4.921875l-1.75 0l0 -5.3125q0 -1.15625 -0.390625 -1.65625q-0.390625 -0.515625 -1.25 -0.515625q-1.015625 0 -1.59375 0.703125q-0.5625 0.6875 -0.5625 1.859375l0 4.921875l-1.75 0zm15.387268 0l0 -8.734375l1.75 0l0 8.734375l-1.75 0zm-0.140625 -10.546875l0 -1.828125l2.03125 0l0 1.828125l-2.03125 0zm4.4553223 10.546875l0 -6.640625q0 -0.5 -0.046875 -1.03125q-0.03125 -0.53125 -0.09375 -1.0625l1.703125 0l0.15625 1.84375l-0.203125 0q0.390625 -0.96875 1.21875 -1.484375q0.84375 -0.515625 1.921875 -0.515625q1.546875 0 2.328125 0.859375q0.796875 0.84375 0.796875 2.625l0 5.40625l-1.75 0l0 -5.296875q0 -1.171875 -0.46875 -1.671875q-0.453125 -0.515625 -1.390625 -0.515625q-1.109375 0 -1.765625 0.6875q-0.65625 0.6875 -0.65625 1.84375l0 4.953125l-1.75 0zm13.619263 0.15625q-1.15625 0 -2.03125 -0.53125q-0.859375 -0.546875 -1.34375 -1.5625q-0.46875 -1.03125 -0.46875 -2.421875q0 -1.421875 0.46875 -2.421875q0.484375 -1.015625 1.34375 -1.5625q0.875 -0.546875 2.03125 -0.546875q1.140625 0 1.984375 0.578125q0.859375 0.5625 1.140625 1.546875l-0.1875 0l0.171875 -1.96875l1.6875 0q-0.046875 0.53125 -0.09375 1.0625q-0.046875 0.53125 -0.046875 1.03125l0 6.640625l-1.75 0l0 -1.9375l0.203125 0q-0.28125 0.96875 -1.140625 1.53125q-0.859375 0.5625 -1.96875 0.5625zm0.4375 -1.375q1.125 0 1.8125 -0.796875q0.6875 -0.796875 0.6875 -2.34375q0 -1.5625 -0.6875 -2.34375q-0.6875 -0.796875 -1.8125 -0.796875q-1.140625 0 -1.828125 0.796875q-0.6875 0.78125 -0.6875 2.34375q0 1.546875 0.671875 2.34375q0.6875 0.796875 1.84375 0.796875zm10.162109 1.375q-1.421875 0 -2.15625 -0.765625q-0.71875 -0.78125 -0.71875 -2.3125l0 -4.453125l-1.6875 0l0 -1.359375l1.6875 0l0 -2.296875l1.75 -0.46875l0 2.765625l2.4375 0l0 1.359375l-2.4375 0l0 4.296875q0 0.96875 0.34375 1.390625q0.359375 0.40625 1.015625 0.40625q0.328125 0 0.578125 -0.0625q0.25 -0.0625 0.453125 -0.140625l0 1.421875q-0.25 0.09375 -0.609375 0.15625q-0.34375 0.0625 -0.65625 0.0625zm6.562805 0q-1.3125 0 -2.265625 -0.546875q-0.953125 -0.546875 -1.46875 -1.5625q-0.515625 -1.015625 -0.515625 -2.40625q0 -1.40625 0.515625 -2.421875q0.515625 -1.015625 1.46875 -1.5625q0.953125 -0.546875 2.265625 -0.546875q1.296875 0 2.25 0.546875q0.96875 0.546875 1.5 1.5625q0.53125 1.015625 0.53125 2.421875q0 1.390625 -0.53125 2.40625q-0.53125 1.015625 -1.5 1.5625q-0.953125 0.546875 -2.25 0.546875zm0 -1.375q1.140625 0 1.8125 -0.796875q0.671875 -0.796875 0.671875 -2.34375q0 -1.5625 -0.671875 -2.34375q-0.671875 -0.796875 -1.8125 -0.796875q-1.125 0 -1.8125 0.796875q-0.671875 0.78125 -0.671875 2.34375q0 1.546875 0.65625 2.34375q0.671875 0.796875 1.828125 0.796875zm6.286316 1.21875l0 -6.5625q0 -0.546875 -0.03125 -1.09375q-0.015625 -0.546875 -0.078125 -1.078125l1.703125 0l0.1875 2.25l-0.28125 0q0.171875 -0.8125 0.59375 -1.34375q0.421875 -0.546875 1.015625 -0.796875q0.59375 -0.265625 1.25 -0.265625q0.28125 0 0.46875 0.03125q0.1875 0.015625 0.390625 0.078125l-0.015625 1.5625q-0.296875 -0.125 -0.515625 -0.15625q-0.21875 -0.03125 -0.53125 -0.03125q-0.765625 0 -1.3125 0.34375q-0.53125 0.34375 -0.8125 0.921875q-0.265625 0.5625 -0.265625 1.21875l0 4.921875l-1.765625 0z" fill-rule="nonzero"/><path fill="#ffffff" d="m813.87665 187.92651l0 0c0 -14.185455 11.499573 -25.685043 25.685059 -25.685043l0 0c6.8120728 0 13.345154 2.7061005 18.162048 7.5229797c4.8168945 4.8168793 7.522949 11.34996 7.522949 18.162064l0 0c0 14.185455 -11.499573 25.685028 -25.684998 25.685028l0 0c-14.185486 0 -25.685059 -11.499573 -25.685059 -25.685028z" fill-rule="evenodd"/><path stroke="#666666" stroke-width="2.0" stroke-linejoin="round" stroke-linecap="butt" d="m813.87665 187.92651l0 0c0 -14.185455 11.499573 -25.685043 25.685059 -25.685043l0 0c6.8120728 0 13.345154 2.7061005 18.162048 7.5229797c4.8168945 4.8168793 7.522949 11.34996 7.522949 18.162064l0 0c0 14.185455 -11.499573 25.685028 -25.684998 25.685028l0 0c-14.185486 0 -25.685059 -11.499573 -25.685059 -25.685028z" fill-rule="evenodd"/><path fill="#000000" d="m840.60333 181.49275l0 6.25l5.96875 0l0 1.984375l-5.96875 0l0 6.3125l-2.140625 0l0 -6.3125l-5.9375 0l0 -1.984375l5.9375 0l0 -6.25l2.140625 0z" fill-rule="nonzero"/><path fill="#000000" fill-opacity="0.0" d="m29.4042 105.973755l67.18111 0l0 28.125977l-67.18111 0z" fill-rule="evenodd"/><path fill="#000000" d="m40.169823 143.29001q-0.375 0 -0.640625 -0.203125q-0.25 -0.203125 -0.28125 -0.515625q-0.03125 -0.328125 0.203125 -0.65625l5.109375 -6.84375l0 0.765625l-4.8125 -6.484375q-0.25 -0.359375 -0.21875 -0.671875q0.03125 -0.328125 0.265625 -0.53125q0.25 -0.20313263 0.609375 -0.20313263q0.328125 0 0.5625 0.14063263q0.25 0.140625 0.484375 0.5l4.265625 5.828125l-0.609375 0l4.21875 -5.828125q0.234375 -0.359375 0.46875 -0.5q0.25 -0.14063263 0.59375 -0.14063263q0.390625 0 0.625 0.20313263q0.25 0.203125 0.28125 0.53125q0.03125 0.3125 -0.25 0.671875l-4.8125 6.484375l0 -0.765625l5.09375 6.84375q0.234375 0.328125 0.203125 0.65625q-0.015625 0.3125 -0.265625 0.515625q-0.25 0.203125 -0.65625 0.203125q-0.28125 0 -0.546875 -0.15625q-0.25 -0.15625 -0.5 -0.484375l-4.546875 -6.21875l0.75 0l-4.515625 6.21875q-0.265625 0.328125 -0.53125 0.484375q-0.25 0.15625 -0.546875 0.15625z" fill-rule="nonzero"/><path fill="#000000" d="m57.74917 154.30563q-1.15625 0 -1.9375 -0.40625q-0.765625 -0.40625 -1.140625 -1.1875q-0.375 -0.78125 -0.375 -1.921875l0 -4.8125l-1.25 0q-0.359375 0 -0.5625 -0.171875q-0.1875 -0.1875 -0.1875 -0.5q0 -0.34375 0.1875 -0.515625q0.203125 -0.171875 0.5625 -0.171875l1.25 0l0 -2.140625q0 -0.4375 0.234375 -0.65625q0.234375 -0.234375 0.65625 -0.234375q0.4375 0 0.65625 0.234375q0.21875 0.21875 0.21875 0.65625l0 2.140625l2.375 0q0.375 0 0.5625 0.171875q0.203125 0.171875 0.203125 0.515625q0 0.3125 -0.203125 0.5q-0.1875 0.171875 -0.5625 0.171875l-2.375 0l0 4.65625q0 1.078125 0.453125 1.625q0.453125 0.546875 1.484375 0.546875q0.375 0 0.625 -0.0625q0.265625 -0.078125 0.453125 -0.078125q0.171875 -0.015625 0.296875 0.125q0.140625 0.125 0.140625 0.5q0 0.28125 -0.09375 0.5q-0.09375 0.21875 -0.34375 0.296875q-0.234375 0.09375 -0.625 0.15625q-0.390625 0.0625 -0.703125 0.0625z" fill-rule="nonzero"/><path fill="#efefef" d="m29.402887 263.64566l0 0c0 -12.080673 9.793329 -21.874008 21.874014 -21.874008q10.937008 0 21.874016 0q0 10.937012 0 21.874008l0 0c0 12.080688 -9.793327 21.874023 -21.874016 21.874023l0 0c-12.080685 0 -21.874014 -9.793335 -21.874014 -21.874023z" fill-rule="evenodd"/><path stroke="#666666" stroke-width="1.0" stroke-linejoin="round" stroke-linecap="butt" d="m29.402887 263.64566l0 0c0 -12.080673 9.793329 -21.874008 21.874014 -21.874008q10.937008 0 21.874016 0q0 10.937012 0 21.874008l0 0c0 12.080688 -9.793327 21.874023 -21.874016 21.874023l0 0c-12.080685 0 -21.874014 -9.793335 -21.874014 -21.874023z" fill-rule="evenodd"/><path fill="#000000" fill-opacity="0.0" d="m32.47113 228.29396l67.1811 0l0 28.125992l-67.1811 0z" fill-rule="evenodd"/><path fill="#000000" d="m43.40863 265.45395q-0.375 0 -0.625 -0.15625q-0.25 -0.15625 -0.34375 -0.421875q-0.09375 -0.28125 0 -0.609375q0.09375 -0.34375 0.359375 -0.703125l8.71875 -12.17186l0 0.71875l-8.25 0q-0.453125 0 -0.6875 -0.21875q-0.234375 -0.234375 -0.234375 -0.640625q0 -0.40625 0.234375 -0.609375q0.234375 -0.21875 0.6875 -0.21875l9.140625 0q0.390625 0 0.625 0.15625q0.25 0.15625 0.34375 0.421875q0.09375 0.265625 0.015625 0.609375q-0.078125 0.34375 -0.359375 0.703125l-8.71875 12.156235l0 -0.703125l8.5625 0q0.453125 0 0.6875 0.21875q0.234375 0.203125 0.234375 0.609375q0 0.40625 -0.234375 0.640625q-0.234375 0.21875 -0.6875 0.21875l-9.46875 0z" fill-rule="nonzero"/><path fill="#000000" d="m59.49376 276.62582q-1.15625 0 -1.9375 -0.40625q-0.765625 -0.40625 -1.140625 -1.1875q-0.375 -0.78125 -0.375 -1.921875l0 -4.8125l-1.25 0q-0.359375 0 -0.5625 -0.171875q-0.1875 -0.1875 -0.1875 -0.5q0 -0.34375 0.1875 -0.515625q0.203125 -0.171875 0.5625 -0.171875l1.25 0l0 -2.140625q0 -0.4375 0.234375 -0.65625q0.234375 -0.234375 0.65625 -0.234375q0.4375 0 0.65625 0.234375q0.21875 0.21875 0.21875 0.65625l0 2.140625l2.375 0q0.375 0 0.5625 0.171875q0.203125 0.171875 0.203125 0.515625q0 0.3125 -0.203125 0.5q-0.1875 0.171875 -0.5625 0.171875l-2.375 0l0 4.65625q0 1.078125 0.453125 1.625q0.453125 0.546875 1.484375 0.546875q0.375 0 0.625 -0.0625q0.265625 -0.078125 0.453125 -0.078125q0.171875 -0.015625 0.296875 0.125q0.140625 0.125 0.140625 0.5q0 0.28125 -0.09375 0.5q-0.09375 0.21875 -0.34375 0.296875q-0.234375 0.09375 -0.625 0.15625q-0.390625 0.0625 -0.703125 0.0625z" fill-rule="nonzero"/><path fill="#efefef" d="m628.7782 115.30971l0 0c0 -12.080681 9.793335 -21.874016 21.874023 -21.874016q10.937012 0 21.874023 0q0 10.937012 0 21.874016l0 0c0 12.080688 -9.793335 21.874023 -21.874023 21.874023l0 0c-12.080688 0 -21.874023 -9.793335 -21.874023 -21.874023z" fill-rule="evenodd"/><path stroke="#666666" stroke-width="1.0" stroke-linejoin="round" stroke-linecap="butt" d="m628.7782 115.30971l0 0c0 -12.080681 9.793335 -21.874016 21.874023 -21.874016q10.937012 0 21.874023 0q0 10.937012 0 21.874016l0 0c0 12.080688 -9.793335 21.874023 -21.874023 21.874023l0 0c-12.080688 0 -21.874023 -9.793335 -21.874023 -21.874023z" fill-rule="evenodd"/><path fill="#000000" fill-opacity="0.0" d="m622.70734 81.16535l67.18109 0l0 28.125984l-67.18109 0z" fill-rule="evenodd"/><path fill="#000000" d="m633.47296 118.481606q-0.375 0 -0.640625 -0.203125q-0.25 -0.203125 -0.28125 -0.515625q-0.03125 -0.328125 0.203125 -0.65625l5.109375 -6.84375l0 0.765625l-4.8125 -6.484375q-0.25 -0.359375 -0.21875 -0.671875q0.03125 -0.328125 0.265625 -0.53125q0.25 -0.203125 0.609375 -0.203125q0.328125 0 0.5625 0.140625q0.25 0.140625 0.484375 0.5l4.265625 5.828125l-0.609375 0l4.21875 -5.828125q0.234375 -0.359375 0.46875 -0.5q0.25 -0.140625 0.59375 -0.140625q0.390625 0 0.625 0.203125q0.25 0.203125 0.28125 0.53125q0.03125 0.3125 -0.25 0.671875l-4.8125 6.484375l0 -0.765625l5.09375 6.84375q0.234375 0.328125 0.203125 0.65625q-0.015625 0.3125 -0.265625 0.515625q-0.25 0.203125 -0.65625 0.203125q-0.28125 0 -0.546875 -0.15625q-0.25 -0.15625 -0.5 -0.484375l-4.546875 -6.21875l0.75 0l-4.515625 6.21875q-0.265625 0.328125 -0.53125 0.484375q-0.25 0.15625 -0.546875 0.15625z" fill-rule="nonzero"/><path fill="#000000" d="m653.39606 103.80973q-0.484375 0 -1.03125 -0.171875q-0.53125 -0.171875 -1.28125 -0.59375q-0.734375 -0.40625 -1.140625 -0.546875q-0.390625 -0.15625 -0.6875 -0.15625q-0.390625 0 -0.734375 0.171875q-0.328125 0.15625 -0.609375 0.625q-0.15625 0.265625 -0.390625 0.3125q-0.21875 0.03125 -0.40625 -0.09375q-0.1875 -0.125 -0.25 -0.34375q-0.0625 -0.21875 0.078125 -0.484375q0.375 -0.703125 0.953125 -1.046875q0.578125 -0.359375 1.265625 -0.359375q0.46875 0 1.0 0.171875q0.53125 0.15625 1.265625 0.5625q0.671875 0.359375 1.09375 0.546875q0.4375 0.171875 0.765625 0.171875q0.390625 0 0.734375 -0.15625q0.34375 -0.171875 0.625 -0.640625q0.15625 -0.265625 0.390625 -0.28125q0.234375 -0.03125 0.421875 0.09375q0.1875 0.109375 0.25 0.34375q0.0625 0.21875 -0.09375 0.46875q-0.390625 0.703125 -0.96875 1.0625q-0.578125 0.34375 -1.25 0.34375z" fill-rule="nonzero"/><path fill="#000000" d="m662.2459 129.49722q-1.15625 0 -1.9375 -0.40625q-0.765625 -0.40625 -1.140625 -1.1874924q-0.375 -0.78125 -0.375 -1.921875l0 -4.8125l-1.25 0q-0.359375 0 -0.5625 -0.171875q-0.1875 -0.1875 -0.1875 -0.5q0 -0.34375 0.1875 -0.515625q0.203125 -0.171875 0.5625 -0.171875l1.25 0l0 -2.140625q0 -0.4375 0.234375 -0.65625q0.234375 -0.234375 0.65625 -0.234375q0.4375 0 0.65625 0.234375q0.21875 0.21875 0.21875 0.65625l0 2.140625l2.375 0q0.375 0 0.5625 0.171875q0.203125 0.171875 0.203125 0.515625q0 0.3125 -0.203125 0.5q-0.1875 0.171875 -0.5625 0.171875l-2.375 0l0 4.65625q0 1.078125 0.453125 1.625q0.453125 0.546875 1.484375 0.546875q0.375 0 0.625 -0.0625q0.265625 -0.078125 0.453125 -0.078125q0.171875 -0.015625 0.296875 0.125q0.140625 0.12499237 0.140625 0.49999237q0 0.28125 -0.09375 0.5q-0.09375 0.21875 -0.34375 0.296875q-0.234375 0.09375 -0.625 0.15625q-0.390625 0.0625 -0.703125 0.0625z" fill-rule="nonzero"/><path fill="#000000" fill-opacity="0.0" d="m280.0551 95.22835l127.71655 0" fill-rule="evenodd"/><path stroke="#000000" stroke-width="2.0" stroke-linejoin="round" stroke-linecap="butt" d="m280.0551 95.22835l115.71655 0" fill-rule="evenodd"/><path fill="#000000" stroke="#000000" stroke-width="2.0" stroke-linecap="butt" d="m395.77167 98.531815l9.076172 -3.3034668l-9.076172 -3.3034668z" fill-rule="evenodd"/><path fill="#000000" fill-opacity="0.0" d="m281.7362 326.7244l123.968506 0" fill-rule="evenodd"/><path stroke="#000000" stroke-width="2.0" stroke-linejoin="round" stroke-linecap="butt" d="m281.7362 326.7244l111.968506 0" fill-rule="evenodd"/><path fill="#000000" stroke="#000000" stroke-width="2.0" stroke-linecap="butt" d="m393.7047 330.02786l9.076202 -3.3034668l-9.076202 -3.3034363z" fill-rule="evenodd"/><path fill="#efefef" d="m628.77954 61.360893l0 0c0 -12.080685 11.04834 -21.874016 24.677185 -21.874016q12.338562 0 24.677124 0q0 10.937008 0 21.874016l0 0c0 12.080681 -11.04834 21.874016 -24.677124 21.874016l0 0c-13.628845 0 -24.677185 -9.793335 -24.677185 -21.874016z" fill-rule="evenodd"/><path stroke="#666666" stroke-width="1.0" stroke-linejoin="round" stroke-linecap="butt" d="m628.77954 61.360893l0 0c0 -12.080685 11.04834 -21.874016 24.677185 -21.874016q12.338562 0 24.677124 0q0 10.937008 0 21.874016l0 0c0 12.080681 -11.04834 21.874016 -24.677124 21.874016l0 0c-13.628845 0 -24.677185 -9.793335 -24.677185 -21.874016z" fill-rule="evenodd"/><path fill="#000000" fill-opacity="0.0" d="m622.70734 28.23097l67.18109 0l0 28.125986l-67.18109 0z" fill-rule="evenodd"/><path fill="#000000" d="m633.47296 65.54722q-0.375 0 -0.640625 -0.203125q-0.25 -0.203125 -0.28125 -0.515625q-0.03125 -0.328125 0.203125 -0.65625l5.109375 -6.843746l0 0.765625l-4.8125 -6.484375q-0.25 -0.359375 -0.21875 -0.671875q0.03125 -0.328125 0.265625 -0.53125q0.25 -0.203125 0.609375 -0.203125q0.328125 0 0.5625 0.140625q0.25 0.140625 0.484375 0.5l4.265625 5.828125l-0.609375 0l4.21875 -5.828125q0.234375 -0.359375 0.46875 -0.5q0.25 -0.140625 0.59375 -0.140625q0.390625 0 0.625 0.203125q0.25 0.203125 0.28125 0.53125q0.03125 0.3125 -0.25 0.671875l-4.8125 6.484375l0 -0.765625l5.09375 6.843746q0.234375 0.328125 0.203125 0.65625q-0.015625 0.3125 -0.265625 0.515625q-0.25 0.203125 -0.65625 0.203125q-0.28125 0 -0.546875 -0.15625q-0.25 -0.15625 -0.5 -0.484375l-4.546875 -6.218746l0.75 0l-4.515625 6.218746q-0.265625 0.328125 -0.53125 0.484375q-0.25 0.15625 -0.546875 0.15625z" fill-rule="nonzero"/><path fill="#000000" d="m646.6148 58.484722q-0.234375 0 -0.359375 -0.09375q-0.125 -0.109375 -0.15625 -0.28125q-0.03125 -0.171875 0.078125 -0.390625l3.390625 -7.6875q0.109375 -0.265625 0.28125 -0.375q0.1875 -0.125 0.390625 -0.125q0.21875 0 0.375 0.125q0.171875 0.109375 0.296875 0.375l3.390625 7.6875q0.109375 0.21875 0.078125 0.40625q-0.015625 0.171875 -0.140625 0.265625q-0.125 0.09375 -0.34375 0.09375q-0.25 0 -0.40625 -0.125q-0.140625 -0.140625 -0.25 -0.390625l-0.890625 -2.0625l0.546875 0.296875l-5.328125 0l0.53125 -0.296875l-0.875 2.0625q-0.109375 0.265625 -0.25 0.390625q-0.140625 0.125 -0.359375 0.125zm3.609375 -7.5625l-1.953125 4.59375l-0.296875 -0.265625l4.5 0l-0.28125 0.265625l-1.953125 -4.59375l-0.015625 0zm6.241577 7.46875q-0.296875 0 -0.453125 -0.15625q-0.15625 -0.171875 -0.15625 -0.46875l0 -7.515625q0 -0.296875 0.15625 -0.453125q0.15625 -0.171875 0.453125 -0.171875l4.578125 0q0.25 0 0.375 0.125q0.125 0.109375 0.125 0.328125q0 0.234375 -0.125 0.359375q-0.125 0.125 -0.375 0.125l-4.078125 0l0 2.90625l3.828125 0q0.234375 0 0.359375 0.125q0.125 0.125 0.125 0.34375q0 0.234375 -0.125 0.359375q-0.125 0.109375 -0.359375 0.109375l-3.828125 0l0 3.046875l4.078125 0q0.25 0 0.375 0.125q0.125 0.109375 0.125 0.34375q0 0.234375 -0.125 0.359375q-0.125 0.109375 -0.375 0.109375l-4.578125 0z" fill-rule="nonzero"/><path fill="#000000" d="m667.4572 76.56284q-1.15625 0 -1.9375 -0.40625q-0.765625 -0.40625 -1.140625 -1.1875q-0.375 -0.78125 -0.375 -1.921875l0 -4.8125l-1.25 0q-0.359375 0 -0.5625 -0.171875q-0.1875 -0.1875 -0.1875 -0.5q0 -0.34375 0.1875 -0.515625q0.203125 -0.171875 0.5625 -0.171875l1.25 0l0 -2.140625q0 -0.4375 0.234375 -0.65625q0.234375 -0.23437119 0.65625 -0.23437119q0.4375 0 0.65625 0.23437119q0.21875 0.21875 0.21875 0.65625l0 2.140625l2.375 0q0.375 0 0.5625 0.171875q0.203125 0.171875 0.203125 0.515625q0 0.3125 -0.203125 0.5q-0.1875 0.171875 -0.5625 0.171875l-2.375 0l0 4.65625q0 1.078125 0.453125 1.625q0.453125 0.546875 1.484375 0.546875q0.375 0 0.625 -0.0625q0.265625 -0.078125 0.453125 -0.078125q0.171875 -0.015625 0.296875 0.125q0.140625 0.125 0.140625 0.5q0 0.28125 -0.09375 0.5q-0.09375 0.21875 -0.34375 0.296875q-0.234375 0.09375 -0.625 0.15625q-0.390625 0.0625 -0.703125 0.0625z" fill-rule="nonzero"/><path fill="#000000" fill-opacity="0.0" d="m554.6483 95.22835l74.14172 -33.85827" fill-rule="evenodd"/><path stroke="#000000" stroke-width="2.0" stroke-linejoin="round" stroke-linecap="butt" d="m554.6483 95.22835l63.226074 -28.873428" fill-rule="evenodd"/><path fill="#000000" stroke="#000000" stroke-width="2.0" stroke-linecap="butt" d="m619.24664 69.35988l6.883789 -6.775242l-9.628296 0.76533127z" fill-rule="evenodd"/><path fill="#000000" fill-opacity="0.0" d="m554.6483 95.22835l74.14172 20.09449" fill-rule="evenodd"/><path stroke="#000000" stroke-width="2.0" stroke-linejoin="round" stroke-linecap="butt" d="m554.6483 95.22835l62.55957 16.955399" fill-rule="evenodd"/><path fill="#000000" stroke="#000000" stroke-width="2.0" stroke-linecap="butt" d="m616.34375 115.372185l9.624268 -0.8141861l-7.895996 -5.562683z" fill-rule="evenodd"/><path fill="#000000" fill-opacity="0.0" d="m51.2769 285.51968l83.590546 41.19684" fill-rule="evenodd"/><path stroke="#000000" stroke-width="2.0" stroke-linejoin="round" stroke-linecap="butt" d="m51.2769 285.51968l72.82678 35.89203" fill-rule="evenodd"/><path fill="#000000" stroke="#000000" stroke-width="2.0" stroke-linecap="butt" d="m122.643326 324.37485l9.601532 1.0491638l-6.6808167 -6.975464z" fill-rule="evenodd"/><path fill="#000000" fill-opacity="0.0" d="m50.889763 120.55118l82.29922 -25.32283" fill-rule="evenodd"/><path stroke="#000000" stroke-width="2.0" stroke-linejoin="round" stroke-linecap="butt" d="m50.889763 120.55118l70.82987 -21.793808" fill-rule="evenodd"/><path fill="#000000" stroke="#000000" stroke-width="2.0" stroke-linecap="butt" d="m122.69113 101.91476l7.7033386 -5.826561l-9.646347 -0.48820496z" fill-rule="evenodd"/><path fill="#000000" fill-opacity="0.0" d="m65.063065 158.07094l0 49.929214l756.3465 0l0 -1.8977203" fill-rule="evenodd"/><path stroke="#38761d" stroke-width="2.0" stroke-linejoin="round" stroke-linecap="butt" stroke-dasharray="8.0,6.0" d="m65.063065 158.07094l0 49.92923l749.0079 0" fill-rule="evenodd"/><path fill="#38761d" stroke="#38761d" stroke-width="2.0" stroke-linecap="butt" d="m820.4414 206.3528c0.45489502 1.7591553 -0.602417 3.5540009 -2.3615723 4.008911c-1.7591553 0.45491028 -3.554016 -0.60240173 -4.008911 -2.3615417c-0.45489502 -1.7591553 0.602417 -3.5540009 2.3615723 -4.008911c1.7591553 -0.45491028 3.553955 0.60240173 4.008911 2.3615417z" fill-rule="nonzero"/><path fill="#000000" fill-opacity="0.0" d="m680.1601 57.989502l159.40161 0l0 104.25197" fill-rule="evenodd"/><path stroke="#38761d" stroke-width="2.0" stroke-linejoin="round" stroke-linecap="butt" stroke-dasharray="8.0,6.0" d="m680.1601 57.989502l159.40161 0l0 104.25197" fill-rule="evenodd"/><path fill="#000000" fill-opacity="0.0" d="m283.00787 21.125984l127.71652 0l0 20.09449l-127.71652 0z" fill-rule="evenodd"/><path fill="#000000" d="m293.24158 46.765984l7.46875 -12.21875l1.859375 0l3.65625 12.21875l-2.171875 0l-0.953125 -3.4375l0.8125 0.609375l-7.328125 0l1.015625 -0.609375l-2.03125 3.4375l-2.328125 0zm8.09375 -9.828125l-3.375 5.796875l-0.359375 -0.546875l5.828125 0l-0.453125 0.546875l-1.578125 -5.796875l-0.0625 0zm9.355408 10.0q-1.59375 0 -2.328125 -0.90625q-0.734375 -0.921875 -0.453125 -2.75l0.828125 -5.265625l2.171875 0l-0.828125 5.234375q-0.15625 1.03125 0.1875 1.5q0.34375 0.46875 1.203125 0.46875q0.96875 0 1.5625 -0.625q0.609375 -0.625 0.78125 -1.65625l0.78125 -4.921875l2.171875 0l-1.390625 8.75l-2.109375 0l0.28125 -1.78125l0.25 0q-0.5 0.9375 -1.296875 1.453125q-0.796875 0.5 -1.8125 0.5zm10.843109 0q-1.625 0 -2.296875 -0.828125q-0.671875 -0.84375 -0.421875 -2.421875l0.640625 -4.046875l-1.6875 0l0.265625 -1.625l1.671875 0l0.375 -2.234375l2.25 -0.5625l-0.453125 2.796875l2.34375 0l-0.265625 1.625l-2.34375 0l-0.59375 3.890625q-0.140625 0.890625 0.140625 1.265625q0.296875 0.375 0.921875 0.375q0.296875 0 0.53125 -0.046875q0.25 -0.0625 0.5 -0.140625l-0.28125 1.71875q-0.328125 0.109375 -0.65625 0.171875q-0.3125 0.0625 -0.640625 0.0625zm6.808777 0q-1.421875 0 -2.375 -0.5625q-0.9375 -0.578125 -1.328125 -1.65625q-0.390625 -1.09375 -0.15625 -2.59375q0.21875 -1.40625 0.90625 -2.359375q0.6875 -0.953125 1.71875 -1.4375q1.03125 -0.484375 2.296875 -0.484375q1.4375 0 2.359375 0.578125q0.9375 0.5625 1.328125 1.640625q0.390625 1.078125 0.15625 2.578125q-0.234375 1.40625 -0.921875 2.359375q-0.671875 0.953125 -1.703125 1.453125q-1.015625 0.484375 -2.28125 0.484375zm0.125 -1.65625q0.984375 0 1.6875 -0.703125q0.71875 -0.703125 0.9375 -2.109375q0.25 -1.53125 -0.28125 -2.25q-0.515625 -0.71875 -1.546875 -0.71875q-1.015625 0 -1.703125 0.703125q-0.6875 0.703125 -0.921875 2.09375q-0.234375 1.515625 0.265625 2.25q0.5 0.734375 1.5625 0.734375zm10.461334 1.65625q-1.546875 0 -2.5625 -0.609375q-1.0 -0.609375 -1.421875 -1.703125q-0.421875 -1.09375 -0.1875 -2.5625q0.203125 -1.3125 0.828125 -2.25q0.640625 -0.953125 1.625 -1.453125q0.984375 -0.515625 2.25 -0.515625q1.265625 0 2.09375 0.5625q0.828125 0.546875 1.171875 1.515625q0.34375 0.953125 0.140625 2.21875l-0.09375 0.546875l-6.359375 0l0.171875 -1.140625l4.84375 0l-0.328125 0.28125q0.1875 -1.234375 -0.265625 -1.859375q-0.4375 -0.640625 -1.453125 -0.640625q-0.734375 0 -1.265625 0.328125q-0.515625 0.328125 -0.84375 0.921875q-0.3125 0.578125 -0.421875 1.296875l-0.09375 0.578125q-0.1875 1.34375 0.40625 2.09375q0.609375 0.734375 2.046875 0.734375q0.671875 0 1.3125 -0.203125q0.65625 -0.203125 1.265625 -0.65625l0.625 1.453125q-0.703125 0.53125 -1.609375 0.796875q-0.90625 0.265625 -1.875 0.265625zm5.042633 -0.171875l1.046875 -6.5625q0.078125 -0.546875 0.125 -1.09375q0.0625 -0.5625 0.078125 -1.09375l2.09375 0l-0.109375 1.734375l-0.21875 0.015625q0.515625 -0.953125 1.390625 -1.4375q0.875 -0.484375 1.96875 -0.484375q1.59375 0 2.234375 0.9375q0.640625 0.921875 0.34375 2.765625l-0.8125 5.21875l-2.15625 0l0.8125 -5.21875q0.171875 -1.078125 -0.1875 -1.53125q-0.359375 -0.46875 -1.171875 -0.46875q-1.0 0 -1.65625 0.609375q-0.65625 0.609375 -0.8125 1.640625l-0.796875 4.96875l-2.171875 0zm14.6831665 0.171875q-1.4375 0 -2.421875 -0.59375q-0.96875 -0.59375 -1.375 -1.671875q-0.40625 -1.09375 -0.171875 -2.546875q0.34375 -2.125 1.6875 -3.203125q1.34375 -1.078125 3.3125 -1.078125q0.8125 0 1.578125 0.25q0.78125 0.234375 1.25 0.703125l-0.71875 1.46875q-0.40625 -0.375 -0.96875 -0.5625q-0.546875 -0.1875 -1.0625 -0.1875q-1.109375 0 -1.890625 0.6875q-0.765625 0.6875 -0.984375 2.078125q-0.234375 1.359375 0.328125 2.15625q0.5625 0.796875 1.78125 0.796875q0.515625 0 1.109375 -0.1875q0.609375 -0.203125 1.125 -0.640625l0.625 1.5q-0.546875 0.453125 -1.421875 0.75q-0.875 0.28125 -1.78125 0.28125zm8.450592 0q-1.421875 0 -2.375 -0.5625q-0.9375 -0.578125 -1.328125 -1.65625q-0.390625 -1.09375 -0.15625 -2.59375q0.21875 -1.40625 0.90625 -2.359375q0.6875 -0.953125 1.71875 -1.4375q1.03125 -0.484375 2.296875 -0.484375q1.4375 0 2.359375 0.578125q0.9375 0.5625 1.328125 1.640625q0.390625 1.078125 0.15625 2.578125q-0.234375 1.40625 -0.921875 2.359375q-0.671875 0.953125 -1.703125 1.453125q-1.015625 0.484375 -2.28125 0.484375zm0.125 -1.65625q0.984375 0 1.6875 -0.703125q0.71875 -0.703125 0.9375 -2.109375q0.25 -1.53125 -0.28125 -2.25q-0.515625 -0.71875 -1.546875 -0.71875q-1.015625 0 -1.703125 0.703125q-0.6875 0.703125 -0.921875 2.09375q-0.234375 1.515625 0.265625 2.25q0.5 0.734375 1.5625 0.734375zm9.586334 1.65625q-1.203125 0 -2.03125 -0.578125q-0.828125 -0.59375 -1.171875 -1.671875q-0.34375 -1.09375 -0.109375 -2.5625q0.34375 -2.125 1.5625 -3.203125q1.21875 -1.078125 2.921875 -1.078125q1.09375 0 1.84375 0.53125q0.765625 0.53125 0.921875 1.421875l-0.1875 0l0.921875 -5.78125l2.171875 0l-2.03125 12.75l-2.140625 0l0.296875 -1.859375l0.265625 0q-0.4375 0.9375 -1.265625 1.484375q-0.8125 0.546875 -1.96875 0.546875zm0.703125 -1.65625q1.0 0 1.71875 -0.703125q0.71875 -0.703125 0.953125 -2.109375q0.234375 -1.53125 -0.296875 -2.25q-0.515625 -0.71875 -1.578125 -0.71875q-1.0 0 -1.71875 0.703125q-0.703125 0.703125 -0.9375 2.09375q-0.234375 1.515625 0.28125 2.25q0.515625 0.734375 1.578125 0.734375zm10.915253 1.65625q-1.546875 0 -2.5625 -0.609375q-1.0 -0.609375 -1.421875 -1.703125q-0.421875 -1.09375 -0.1875 -2.5625q0.203125 -1.3125 0.828125 -2.25q0.640625 -0.953125 1.625 -1.453125q0.984375 -0.515625 2.25 -0.515625q1.265625 0 2.09375 0.5625q0.828125 0.546875 1.171875 1.515625q0.34375 0.953125 0.140625 2.21875l-0.09375 0.546875l-6.359375 0l0.171875 -1.140625l4.84375 0l-0.328125 0.28125q0.1875 -1.234375 -0.265625 -1.859375q-0.4375 -0.640625 -1.453125 -0.640625q-0.734375 0 -1.265625 0.328125q-0.515625 0.328125 -0.84375 0.921875q-0.3125 0.578125 -0.421875 1.296875l-0.09375 0.578125q-0.1875 1.34375 0.40625 2.09375q0.609375 0.734375 2.046875 0.734375q0.671875 0 1.3125 -0.203125q0.65625 -0.203125 1.265625 -0.65625l0.625 1.453125q-0.703125 0.53125 -1.609375 0.796875q-0.90625 0.265625 -1.875 0.265625zm5.027008 -0.171875l1.03125 -6.515625q0.09375 -0.546875 0.15625 -1.125q0.0625 -0.578125 0.078125 -1.109375l2.09375 0l-0.125 2.390625l-0.375 0q0.3125 -0.859375 0.796875 -1.4375q0.5 -0.578125 1.140625 -0.84375q0.640625 -0.28125 1.359375 -0.28125q0.234375 0 0.4375 0.03125q0.21875 0.015625 0.40625 0.046875l-0.328125 1.9375q-0.28125 -0.125 -0.515625 -0.15625q-0.234375 -0.046875 -0.578125 -0.046875q-0.6875 0 -1.25 0.296875q-0.546875 0.296875 -0.921875 0.84375q-0.359375 0.546875 -0.484375 1.3125l-0.734375 4.65625l-2.1875 0z" fill-rule="nonzero"/><path fill="#000000" fill-opacity="0.0" d="m308.40945 372.4908l427.93698 0l0 20.094482l-427.93698 0z" fill-rule="evenodd"/><path fill="#000000" d="m323.27676 398.1308l1.9375 -12.21875l2.234375 0l-1.640625 10.328125l5.75 0l-0.296875 1.890625l-7.984375 0zm13.83432 0.171875q-1.421875 0 -2.609375 -0.328125q-1.1875 -0.34375 -1.96875 -0.890625l0.78125 -1.75q0.8125 0.5 1.78125 0.796875q0.96875 0.296875 2.1875 0.296875q1.34375 0 2.015625 -0.4375q0.6875 -0.453125 0.78125 -1.171875q0.109375 -0.65625 -0.234375 -1.046875q-0.34375 -0.40625 -1.328125 -0.546875l-1.8125 -0.296875q-1.625 -0.25 -2.40625 -1.171875q-0.765625 -0.9375 -0.53125 -2.390625q0.171875 -1.109375 0.859375 -1.90625q0.6875 -0.8125 1.828125 -1.265625q1.140625 -0.453125 2.609375 -0.453125q1.234375 0 2.265625 0.328125q1.046875 0.3125 1.6875 0.875l-0.78125 1.703125q-0.640625 -0.484375 -1.484375 -0.75q-0.84375 -0.28125 -1.90625 -0.28125q-1.25 0 -2.0 0.46875q-0.75 0.453125 -0.875 1.265625q-0.125 0.671875 0.234375 1.125q0.359375 0.4375 1.375 0.59375l1.796875 0.265625q1.65625 0.265625 2.40625 1.15625q0.75 0.875 0.515625 2.328125q-0.15625 1.015625 -0.828125 1.796875q-0.671875 0.78125 -1.78125 1.234375q-1.09375 0.453125 -2.578125 0.453125zm12.91095 0q-2.203125 0 -3.53125 -0.8125q-1.328125 -0.8125 -1.8125 -2.28125q-0.484375 -1.46875 -0.171875 -3.421875q0.3125 -1.9375 1.265625 -3.28125q0.953125 -1.34375 2.453125 -2.046875q1.5 -0.71875 3.421875 -0.71875q1.328125 0 2.28125 0.3125q0.953125 0.3125 1.59375 0.859375l-0.8125 1.75q-0.703125 -0.53125 -1.390625 -0.75q-0.6875 -0.234375 -1.765625 -0.234375q-1.984375 0 -3.203125 1.125q-1.203125 1.109375 -1.515625 3.171875q-0.34375 2.078125 0.453125 3.25q0.8125 1.171875 2.953125 1.171875q0.796875 0 1.5 -0.140625q0.703125 -0.140625 1.453125 -0.40625l-0.671875 0.953125l0.578125 -3.65625l-2.84375 0l0.265625 -1.640625l4.703125 0l-0.921875 5.84375q-0.578125 0.296875 -1.3125 0.515625q-0.71875 0.21875 -1.5 0.328125q-0.765625 0.109375 -1.46875 0.109375zm5.354004 -0.171875l7.46875 -12.21875l1.859375 0l3.65625 12.21875l-2.171875 0l-0.953125 -3.4375l0.8125 0.609375l-7.328125 0l1.015625 -0.609375l-2.03125 3.4375l-2.328125 0zm8.09375 -9.828125l-3.375 5.796875l-0.359375 -0.546875l5.828125 0l-0.453125 0.546875l-1.578125 -5.796875l-0.0625 0zm6.246002 9.828125l1.9375 -12.21875l1.6875 0l5.578125 9.296875l-0.390625 -0.125l1.453125 -9.171875l2.078125 0l-1.9375 12.21875l-1.6875 0l-5.578125 -9.28125l0.390625 0.109375l-1.453125 9.171875l-2.078125 0zm20.080536 0l-2.015625 -8.75l2.140625 0l1.390625 6.8125l-0.453125 0l3.59375 -6.8125l1.53125 0l1.390625 6.8125l-0.40625 0l3.546875 -6.8125l2.171875 0l-4.796875 8.75l-1.90625 0l-1.515625 -6.96875l0.9375 0l-3.6875 6.96875l-1.921875 0zm12.878784 0l1.390625 -8.75l2.15625 0l-1.375 8.75l-2.171875 0zm1.53125 -10.390625l0.34375 -2.125l2.40625 0l-0.34375 2.125l-2.40625 0zm6.7882385 10.5625q-1.625 0 -2.296875 -0.828125q-0.671875 -0.84375 -0.421875 -2.421875l0.640625 -4.046875l-1.6875 0l0.265625 -1.625l1.671875 0l0.375 -2.234375l2.25 -0.5625l-0.453125 2.796875l2.34375 0l-0.265625 1.625l-2.34375 0l-0.59375 3.890625q-0.140625 0.890625 0.140625 1.265625q0.296875 0.375 0.921875 0.375q0.296875 0 0.53125 -0.046875q0.25 -0.0625 0.5 -0.140625l-0.28125 1.71875q-0.328125 0.109375 -0.65625 0.171875q-0.3125 0.0625 -0.640625 0.0625zm2.7704468 -0.171875l2.03125 -12.75l2.15625 0l-0.90625 5.75l-0.265625 0q0.515625 -0.953125 1.390625 -1.4375q0.875 -0.484375 1.96875 -0.484375q1.59375 0 2.234375 0.9375q0.640625 0.921875 0.34375 2.765625l-0.8125 5.21875l-2.15625 0l0.8125 -5.21875q0.171875 -1.078125 -0.171875 -1.53125q-0.34375 -0.46875 -1.1875 -0.46875q-1.0 0 -1.65625 0.609375q-0.65625 0.609375 -0.8125 1.640625l-0.796875 4.96875l-2.171875 0zm15.36853 0l1.9375 -12.21875l4.234375 0q2.21875 0 3.578125 0.78125q1.359375 0.765625 1.875 2.1875q0.53125 1.421875 0.21875 3.390625q-0.46875 2.9375 -2.359375 4.40625q-1.875 1.453125 -4.953125 1.453125l-4.53125 0zm2.53125 -1.859375l2.0625 0q2.21875 0 3.453125 -1.015625q1.25 -1.03125 1.578125 -3.125q0.34375 -2.25 -0.578125 -3.3125q-0.921875 -1.0625 -3.140625 -1.0625l-2.046875 0l-1.328125 8.515625zm13.782074 2.03125q-1.59375 0 -2.328125 -0.90625q-0.734375 -0.921875 -0.453125 -2.75l0.828125 -5.265625l2.171875 0l-0.828125 5.234375q-0.15625 1.03125 0.1875 1.5q0.34375 0.46875 1.203125 0.46875q0.96875 0 1.5625 -0.625q0.609375 -0.625 0.78125 -1.65625l0.78125 -4.921875l2.171875 0l-1.390625 8.75l-2.109375 0l0.28125 -1.78125l0.25 0q-0.5 0.9375 -1.296875 1.453125q-0.796875 0.5 -1.8125 0.5zm10.62439 0q-1.203125 0 -2.03125 -0.578125q-0.828125 -0.59375 -1.171875 -1.671875q-0.34375 -1.09375 -0.109375 -2.5625q0.34375 -2.125 1.5625 -3.203125q1.21875 -1.078125 2.921875 -1.078125q1.09375 0 1.84375 0.53125q0.765625 0.53125 0.921875 1.421875l-0.171875 0.0625l0.484375 -1.84375l2.078125 0q-0.125 0.53125 -0.265625 1.09375q-0.125 0.546875 -0.21875 1.09375l-1.03125 6.5625l-2.15625 0l0.296875 -1.859375l0.28125 0q-0.4375 0.9375 -1.265625 1.484375q-0.8125 0.546875 -1.96875 0.546875zm0.703125 -1.65625q1.0 0 1.71875 -0.703125q0.71875 -0.703125 0.953125 -2.109375q0.234375 -1.53125 -0.296875 -2.25q-0.515625 -0.71875 -1.578125 -0.71875q-1.0 0 -1.71875 0.703125q-0.703125 0.703125 -0.9375 2.09375q-0.234375 1.515625 0.28125 2.25q0.515625 0.734375 1.578125 0.734375zm6.4621277 1.484375l2.03125 -12.75l2.15625 0l-2.015625 12.75l-2.171875 0zm9.442352 0l1.9375 -12.21875l4.234375 0q2.21875 0 3.578125 0.78125q1.359375 0.765625 1.875 2.1875q0.53125 1.421875 0.21875 3.390625q-0.46875 2.9375 -2.359375 4.40625q-1.875 1.453125 -4.953125 1.453125l-4.53125 0zm2.53125 -1.859375l2.0625 0q2.21875 0 3.453125 -1.015625q1.25 -1.03125 1.578125 -3.125q0.34375 -2.25 -0.578125 -3.3125q-0.921875 -1.0625 -3.140625 -1.0625l-2.046875 0l-1.328125 8.515625zm10.500824 1.859375l1.390625 -8.75l2.15625 0l-1.375 8.75l-2.171875 0zm1.53125 -10.390625l0.34375 -2.125l2.40625 0l-0.34375 2.125l-2.40625 0zm6.2726135 10.5625q-1.078125 0 -2.0 -0.25q-0.90625 -0.25 -1.453125 -0.6875l0.640625 -1.453125q0.609375 0.375 1.359375 0.609375q0.75 0.234375 1.546875 0.234375q0.859375 0 1.328125 -0.28125q0.484375 -0.28125 0.546875 -0.765625q0.078125 -0.4375 -0.171875 -0.703125q-0.25 -0.265625 -0.8125 -0.359375l-1.40625 -0.21875q-1.265625 -0.21875 -1.78125 -0.90625q-0.5 -0.6875 -0.34375 -1.734375q0.140625 -0.828125 0.65625 -1.390625q0.53125 -0.578125 1.359375 -0.875q0.828125 -0.3125 1.828125 -0.3125q0.96875 0 1.78125 0.234375q0.8125 0.234375 1.328125 0.640625l-0.6875 1.421875q-0.46875 -0.34375 -1.125 -0.5625q-0.640625 -0.21875 -1.296875 -0.21875q-0.875 0 -1.34375 0.3125q-0.46875 0.3125 -0.546875 0.796875q-0.0625 0.421875 0.140625 0.71875q0.203125 0.28125 0.75 0.359375l1.4375 0.25q1.296875 0.203125 1.8125 0.859375q0.53125 0.640625 0.359375 1.6875q-0.109375 0.828125 -0.65625 1.40625q-0.53125 0.578125 -1.375 0.890625q-0.828125 0.296875 -1.875 0.296875zm9.63446 0q-1.4375 0 -2.421875 -0.59375q-0.96875 -0.59375 -1.375 -1.671875q-0.40625 -1.09375 -0.171875 -2.546875q0.34375 -2.125 1.6875 -3.203125q1.34375 -1.078125 3.3125 -1.078125q0.8125 0 1.578125 0.25q0.78125 0.234375 1.25 0.703125l-0.71875 1.46875q-0.40625 -0.375 -0.96875 -0.5625q-0.546875 -0.1875 -1.0625 -0.1875q-1.109375 0 -1.890625 0.6875q-0.765625 0.6875 -0.984375 2.078125q-0.234375 1.359375 0.328125 2.15625q0.5625 0.796875 1.78125 0.796875q0.515625 0 1.109375 -0.1875q0.609375 -0.203125 1.125 -0.640625l0.625 1.5q-0.546875 0.453125 -1.421875 0.75q-0.875 0.28125 -1.78125 0.28125zm4.4833374 -0.171875l1.03125 -6.515625q0.09375 -0.546875 0.15625 -1.125q0.0625 -0.578125 0.078125 -1.109375l2.09375 0l-0.125 2.390625l-0.375 0q0.3125 -0.859375 0.796875 -1.4375q0.5 -0.578125 1.140625 -0.84375q0.640625 -0.28125 1.359375 -0.28125q0.234375 0 0.4375 0.03125q0.21875 0.015625 0.40625 0.046875l-0.328125 1.9375q-0.28125 -0.125 -0.515625 -0.15625q-0.234375 -0.046875 -0.578125 -0.046875q-0.6875 0 -1.25 0.296875q-0.546875 0.296875 -0.921875 0.84375q-0.359375 0.546875 -0.484375 1.3125l-0.734375 4.65625l-2.1875 0zm6.8255005 0l1.390625 -8.75l2.15625 0l-1.375 8.75l-2.171875 0zm1.53125 -10.390625l0.34375 -2.125l2.40625 0l-0.34375 2.125l-2.40625 0zm2.991394 10.390625l1.046875 -6.5625q0.078125 -0.546875 0.125 -1.09375q0.0625 -0.5625 0.078125 -1.09375l2.09375 0l-0.109375 1.734375l-0.21875 0q0.5 -0.953125 1.296875 -1.421875q0.8125 -0.484375 1.859375 -0.484375q1.03125 0 1.671875 0.5q0.640625 0.5 0.734375 1.53125l-0.296875 0q0.5 -0.921875 1.40625 -1.46875q0.90625 -0.5625 1.9375 -0.5625q1.515625 0 2.140625 0.90625q0.640625 0.890625 0.34375 2.828125l-0.828125 5.1875l-2.171875 0l0.828125 -5.265625q0.15625 -1.03125 -0.125 -1.484375q-0.28125 -0.46875 -1.0625 -0.46875q-0.90625 0 -1.5 0.640625q-0.578125 0.625 -0.765625 1.6875l-0.765625 4.890625l-2.171875 0l0.828125 -5.265625q0.171875 -1.03125 -0.109375 -1.484375q-0.28125 -0.46875 -1.0625 -0.46875q-0.921875 0 -1.5 0.640625q-0.578125 0.625 -0.75 1.6875l-0.78125 4.890625l-2.171875 0zm15.577881 0l1.390625 -8.75l2.15625 0l-1.375 8.75l-2.171875 0zm1.53125 -10.390625l0.34375 -2.125l2.40625 0l-0.34375 2.125l-2.40625 0zm2.991394 10.390625l1.046875 -6.5625q0.078125 -0.546875 0.125 -1.09375q0.0625 -0.5625 0.078125 -1.09375l2.09375 0l-0.109375 1.734375l-0.21875 0.015625q0.515625 -0.953125 1.390625 -1.4375q0.875 -0.484375 1.96875 -0.484375q1.59375 0 2.234375 0.9375q0.640625 0.921875 0.34375 2.765625l-0.8125 5.21875l-2.15625 0l0.8125 -5.21875q0.171875 -1.078125 -0.1875 -1.53125q-0.359375 -0.46875 -1.171875 -0.46875q-1.0 0 -1.65625 0.609375q-0.65625 0.609375 -0.8125 1.640625l-0.796875 4.96875l-2.171875 0zm14.0269165 0.171875q-1.203125 0 -2.03125 -0.578125q-0.828125 -0.59375 -1.171875 -1.671875q-0.34375 -1.09375 -0.109375 -2.5625q0.34375 -2.125 1.5625 -3.203125q1.21875 -1.078125 2.921875 -1.078125q1.09375 0 1.84375 0.53125q0.765625 0.53125 0.921875 1.421875l-0.171875 0.0625l0.484375 -1.84375l2.078125 0q-0.125 0.53125 -0.265625 1.09375q-0.125 0.546875 -0.21875 1.09375l-1.03125 6.5625l-2.15625 0l0.296875 -1.859375l0.28125 0q-0.4375 0.9375 -1.265625 1.484375q-0.8125 0.546875 -1.96875 0.546875zm0.703125 -1.65625q1.0 0 1.71875 -0.703125q0.71875 -0.703125 0.953125 -2.109375q0.234375 -1.53125 -0.296875 -2.25q-0.515625 -0.71875 -1.578125 -0.71875q-1.0 0 -1.71875 0.703125q-0.703125 0.703125 -0.9375 2.09375q-0.234375 1.515625 0.28125 2.25q0.515625 0.734375 1.578125 0.734375zm10.258972 1.65625q-1.625 0 -2.296875 -0.828125q-0.671875 -0.84375 -0.421875 -2.421875l0.640625 -4.046875l-1.6875 0l0.265625 -1.625l1.671875 0l0.375 -2.234375l2.25 -0.5625l-0.453125 2.796875l2.34375 0l-0.265625 1.625l-2.34375 0l-0.59375 3.890625q-0.140625 0.890625 0.140625 1.265625q0.296875 0.375 0.921875 0.375q0.296875 0 0.53125 -0.046875q0.25 -0.0625 0.5 -0.140625l-0.28125 1.71875q-0.328125 0.109375 -0.65625 0.171875q-0.3125 0.0625 -0.640625 0.0625zm6.808777 0q-1.421875 0 -2.375 -0.5625q-0.9375 -0.578125 -1.328125 -1.65625q-0.390625 -1.09375 -0.15625 -2.59375q0.21875 -1.40625 0.90625 -2.359375q0.6875 -0.953125 1.71875 -1.4375q1.03125 -0.484375 2.296875 -0.484375q1.4375 0 2.359375 0.578125q0.9375 0.5625 1.328125 1.640625q0.390625 1.078125 0.15625 2.578125q-0.234375 1.40625 -0.921875 2.359375q-0.671875 0.953125 -1.703125 1.453125q-1.015625 0.484375 -2.28125 0.484375zm0.125 -1.65625q0.984375 0 1.6875 -0.703125q0.71875 -0.703125 0.9375 -2.109375q0.25 -1.53125 -0.28125 -2.25q-0.515625 -0.71875 -1.546875 -0.71875q-1.015625 0 -1.703125 0.703125q-0.6875 0.703125 -0.921875 2.09375q-0.234375 1.515625 0.265625 2.25q0.5 0.734375 1.5625 0.734375zm5.9925537 1.484375l1.03125 -6.515625q0.09375 -0.546875 0.15625 -1.125q0.0625 -0.578125 0.078125 -1.109375l2.09375 0l-0.125 2.390625l-0.375 0q0.3125 -0.859375 0.796875 -1.4375q0.5 -0.578125 1.140625 -0.84375q0.640625 -0.28125 1.359375 -0.28125q0.234375 0 0.4375 0.03125q0.21875 0.015625 0.40625 0.046875l-0.328125 1.9375q-0.28125 -0.125 -0.515625 -0.15625q-0.234375 -0.046875 -0.578125 -0.046875q-0.6875 0 -1.25 0.296875q-0.546875 0.296875 -0.921875 0.84375q-0.359375 0.546875 -0.484375 1.3125l-0.734375 4.65625l-2.1875 0zm10.020081 0.171875q-1.078125 0 -2.0 -0.25q-0.90625 -0.25 -1.453125 -0.6875l0.640625 -1.453125q0.609375 0.375 1.359375 0.609375q0.75 0.234375 1.546875 0.234375q0.859375 0 1.328125 -0.28125q0.484375 -0.28125 0.546875 -0.765625q0.078125 -0.4375 -0.171875 -0.703125q-0.25 -0.265625 -0.8125 -0.359375l-1.40625 -0.21875q-1.265625 -0.21875 -1.78125 -0.90625q-0.5 -0.6875 -0.34375 -1.734375q0.140625 -0.828125 0.65625 -1.390625q0.53125 -0.578125 1.359375 -0.875q0.828125 -0.3125 1.828125 -0.3125q0.96875 0 1.78125 0.234375q0.8125 0.234375 1.328125 0.640625l-0.6875 1.421875q-0.46875 -0.34375 -1.125 -0.5625q-0.640625 -0.21875 -1.296875 -0.21875q-0.875 0 -1.34375 0.3125q-0.46875 0.3125 -0.546875 0.796875q-0.0625 0.421875 0.140625 0.71875q0.203125 0.28125 0.75 0.359375l1.4375 0.25q1.296875 0.203125 1.8125 0.859375q0.53125 0.640625 0.359375 1.6875q-0.109375 0.828125 -0.65625 1.40625q-0.53125 0.578125 -1.375 0.890625q-0.828125 0.296875 -1.875 0.296875zm13.726074 0q-1.203125 0 -2.03125 -0.578125q-0.828125 -0.59375 -1.171875 -1.671875q-0.34375 -1.09375 -0.109375 -2.5625q0.34375 -2.125 1.5625 -3.203125q1.21875 -1.078125 2.921875 -1.078125q1.09375 0 1.84375 0.53125q0.765625 0.53125 0.921875 1.421875l-0.171875 0.0625l0.484375 -1.84375l2.078125 0q-0.125 0.53125 -0.265625 1.09375q-0.125 0.546875 -0.21875 1.09375l-1.03125 6.5625l-2.15625 0l0.296875 -1.859375l0.28125 0q-0.4375 0.9375 -1.265625 1.484375q-0.8125 0.546875 -1.96875 0.546875zm0.703125 -1.65625q1.0 0 1.71875 -0.703125q0.71875 -0.703125 0.953125 -2.109375q0.234375 -1.53125 -0.296875 -2.25q-0.515625 -0.71875 -1.578125 -0.71875q-1.0 0 -1.71875 0.703125q-0.703125 0.703125 -0.9375 2.09375q-0.234375 1.515625 0.28125 2.25q0.515625 0.734375 1.578125 0.734375zm6.462158 1.484375l1.046875 -6.5625q0.078125 -0.546875 0.125 -1.09375q0.0625 -0.5625 0.078125 -1.09375l2.09375 0l-0.109375 1.734375l-0.21875 0.015625q0.515625 -0.953125 1.390625 -1.4375q0.875 -0.484375 1.96875 -0.484375q1.59375 0 2.234375 0.9375q0.640625 0.921875 0.34375 2.765625l-0.8125 5.21875l-2.15625 0l0.8125 -5.21875q0.171875 -1.078125 -0.1875 -1.53125q-0.359375 -0.46875 -1.171875 -0.46875q-1.0 0 -1.65625 0.609375q-0.65625 0.609375 -0.8125 1.640625l-0.796875 4.96875l-2.171875 0zm14.0269165 0.171875q-1.203125 0 -2.03125 -0.578125q-0.828125 -0.59375 -1.171875 -1.671875q-0.34375 -1.09375 -0.109375 -2.5625q0.34375 -2.125 1.5625 -3.203125q1.21875 -1.078125 2.921875 -1.078125q1.09375 0 1.84375 0.53125q0.765625 0.53125 0.921875 1.421875l-0.1875 0l0.921875 -5.78125l2.171875 0l-2.03125 12.75l-2.140625 0l0.296875 -1.859375l0.265625 0q-0.4375 0.9375 -1.265625 1.484375q-0.8125 0.546875 -1.96875 0.546875zm0.703125 -1.65625q1.0 0 1.71875 -0.703125q0.71875 -0.703125 0.953125 -2.109375q0.234375 -1.53125 -0.296875 -2.25q-0.515625 -0.71875 -1.578125 -0.71875q-1.0 0 -1.71875 0.703125q-0.703125 0.703125 -0.9375 2.09375q-0.234375 1.515625 0.28125 2.25q0.515625 0.734375 1.578125 0.734375zm15.772461 1.65625q-1.421875 0 -2.609375 -0.328125q-1.1875 -0.34375 -1.96875 -0.890625l0.78125 -1.75q0.8125 0.5 1.78125 0.796875q0.96875 0.296875 2.1875 0.296875q1.34375 0 2.015625 -0.4375q0.6875 -0.453125 0.78125 -1.171875q0.109375 -0.65625 -0.234375 -1.046875q-0.34375 -0.40625 -1.328125 -0.546875l-1.8125 -0.296875q-1.625 -0.25 -2.40625 -1.171875q-0.765625 -0.9375 -0.53125 -2.390625q0.171875 -1.109375 0.859375 -1.90625q0.6875 -0.8125 1.828125 -1.265625q1.140625 -0.453125 2.609375 -0.453125q1.234375 0 2.265625 0.328125q1.046875 0.3125 1.6875 0.875l-0.78125 1.703125q-0.640625 -0.484375 -1.484375 -0.75q-0.84375 -0.28125 -1.90625 -0.28125q-1.25 0 -2.0 0.46875q-0.75 0.453125 -0.875 1.265625q-0.125 0.671875 0.234375 1.125q0.359375 0.4375 1.375 0.59375l1.796875 0.265625q1.65625 0.265625 2.40625 1.15625q0.75 0.875 0.515625 2.328125q-0.15625 1.015625 -0.828125 1.796875q-0.671875 0.78125 -1.78125 1.234375q-1.09375 0.453125 -2.578125 0.453125zm9.895325 0q-1.59375 0 -2.328125 -0.90625q-0.734375 -0.921875 -0.453125 -2.75l0.828125 -5.265625l2.171875 0l-0.828125 5.234375q-0.15625 1.03125 0.1875 1.5q0.34375 0.46875 1.203125 0.46875q0.96875 0 1.5625 -0.625q0.609375 -0.625 0.78125 -1.65625l0.78125 -4.921875l2.171875 0l-1.390625 8.75l-2.109375 0l0.28125 -1.78125l0.25 0q-0.5 0.9375 -1.296875 1.453125q-0.796875 0.5 -1.8125 0.5zm6.4525146 3.578125l1.640625 -10.3125q0.078125 -0.546875 0.125 -1.09375q0.0625 -0.5625 0.078125 -1.09375l2.09375 0l-0.109375 1.84375l-0.25 0q0.4375 -0.921875 1.25 -1.46875q0.828125 -0.546875 1.984375 -0.546875q1.21875 0 2.03125 0.59375q0.828125 0.578125 1.171875 1.65625q0.359375 1.078125 0.109375 2.546875q-0.34375 2.109375 -1.578125 3.203125q-1.21875 1.09375 -2.90625 1.09375q-1.09375 0 -1.859375 -0.53125q-0.765625 -0.546875 -0.921875 -1.4375l0.203125 0l-0.890625 5.546875l-2.171875 0zm5.3125 -5.234375q1.015625 0 1.71875 -0.703125q0.703125 -0.703125 0.921875 -2.109375q0.25 -1.53125 -0.265625 -2.25q-0.515625 -0.71875 -1.578125 -0.71875q-1.015625 0 -1.734375 0.703125q-0.71875 0.703125 -0.9375 2.09375q-0.21875 1.515625 0.296875 2.25q0.515625 0.734375 1.578125 0.734375zm10.477783 1.65625q-1.546875 0 -2.5625 -0.609375q-1.0 -0.609375 -1.421875 -1.703125q-0.421875 -1.09375 -0.1875 -2.5625q0.203125 -1.3125 0.828125 -2.25q0.640625 -0.953125 1.625 -1.453125q0.984375 -0.515625 2.25 -0.515625q1.265625 0 2.09375 0.5625q0.828125 0.546875 1.171875 1.515625q0.34375 0.953125 0.140625 2.21875l-0.09375 0.546875l-6.359375 0l0.171875 -1.140625l4.84375 0l-0.328125 0.28125q0.1875 -1.234375 -0.265625 -1.859375q-0.4375 -0.640625 -1.453125 -0.640625q-0.734375 0 -1.265625 0.328125q-0.515625 0.328125 -0.84375 0.921875q-0.3125 0.578125 -0.421875 1.296875l-0.09375 0.578125q-0.1875 1.34375 0.40625 2.09375q0.609375 0.734375 2.046875 0.734375q0.671875 0 1.3125 -0.203125q0.65625 -0.203125 1.265625 -0.65625l0.625 1.453125q-0.703125 0.53125 -1.609375 0.796875q-0.90625 0.265625 -1.875 0.265625zm5.0269775 -0.171875l1.03125 -6.515625q0.09375 -0.546875 0.15625 -1.125q0.0625 -0.578125 0.078125 -1.109375l2.09375 0l-0.125 2.390625l-0.375 0q0.3125 -0.859375 0.796875 -1.4375q0.5 -0.578125 1.140625 -0.84375q0.640625 -0.28125 1.359375 -0.28125q0.234375 0 0.4375 0.03125q0.21875 0.015625 0.40625 0.046875l-0.328125 1.9375q-0.28125 -0.125 -0.515625 -0.15625q-0.234375 -0.046875 -0.578125 -0.046875q-0.6875 0 -1.25 0.296875q-0.546875 0.296875 -0.921875 0.84375q-0.359375 0.546875 -0.484375 1.3125l-0.734375 4.65625l-2.1875 0zm9.90802 0l-2.375 -8.75l2.21875 0l1.65625 6.84375l-0.546875 0l3.90625 -6.84375l2.234375 0l-5.1875 8.75l-1.90625 0zm6.8639526 0l1.390625 -8.75l2.15625 0l-1.375 8.75l-2.171875 0zm1.53125 -10.390625l0.34375 -2.125l2.40625 0l-0.34375 2.125l-2.40625 0zm6.272644 10.5625q-1.078125 0 -2.0 -0.25q-0.90625 -0.25 -1.453125 -0.6875l0.640625 -1.453125q0.609375 0.375 1.359375 0.609375q0.75 0.234375 1.546875 0.234375q0.859375 0 1.328125 -0.28125q0.484375 -0.28125 0.546875 -0.765625q0.078125 -0.4375 -0.171875 -0.703125q-0.25 -0.265625 -0.8125 -0.359375l-1.40625 -0.21875q-1.265625 -0.21875 -1.78125 -0.90625q-0.5 -0.6875 -0.34375 -1.734375q0.140625 -0.828125 0.65625 -1.390625q0.53125 -0.578125 1.359375 -0.875q0.828125 -0.3125 1.828125 -0.3125q0.96875 0 1.78125 0.234375q0.8125 0.234375 1.328125 0.640625l-0.6875 1.421875q-0.46875 -0.34375 -1.125 -0.5625q-0.640625 -0.21875 -1.296875 -0.21875q-0.875 0 -1.34375 0.3125q-0.46875 0.3125 -0.546875 0.796875q-0.0625 0.421875 0.140625 0.71875q0.203125 0.28125 0.75 0.359375l1.4375 0.25q1.296875 0.203125 1.8125 0.859375q0.53125 0.640625 0.359375 1.6875q-0.109375 0.828125 -0.65625 1.40625q-0.53125 0.578125 -1.375 0.890625q-0.828125 0.296875 -1.875 0.296875zm9.525085 0q-1.421875 0 -2.375 -0.5625q-0.9375 -0.578125 -1.328125 -1.65625q-0.390625 -1.09375 -0.15625 -2.59375q0.21875 -1.40625 0.90625 -2.359375q0.6875 -0.953125 1.71875 -1.4375q1.03125 -0.484375 2.296875 -0.484375q1.4375 0 2.359375 0.578125q0.9375 0.5625 1.328125 1.640625q0.390625 1.078125 0.15625 2.578125q-0.234375 1.40625 -0.921875 2.359375q-0.671875 0.953125 -1.703125 1.453125q-1.015625 0.484375 -2.28125 0.484375zm0.125 -1.65625q0.984375 0 1.6875 -0.703125q0.71875 -0.703125 0.9375 -2.109375q0.25 -1.53125 -0.28125 -2.25q-0.515625 -0.71875 -1.546875 -0.71875q-1.015625 0 -1.703125 0.703125q-0.6875 0.703125 -0.921875 2.09375q-0.234375 1.515625 0.265625 2.25q0.5 0.734375 1.5625 0.734375zm5.9925537 1.484375l1.03125 -6.515625q0.09375 -0.546875 0.15625 -1.125q0.0625 -0.578125 0.078125 -1.109375l2.09375 0l-0.125 2.390625l-0.375 0q0.3125 -0.859375 0.796875 -1.4375q0.5 -0.578125 1.140625 -0.84375q0.640625 -0.28125 1.359375 -0.28125q0.234375 0 0.4375 0.03125q0.21875 0.015625 0.40625 0.046875l-0.328125 1.9375q-0.28125 -0.125 -0.515625 -0.15625q-0.234375 -0.046875 -0.578125 -0.046875q-0.6875 0 -1.25 0.296875q-0.546875 0.296875 -0.921875 0.84375q-0.359375 0.546875 -0.484375 1.3125l-0.734375 4.65625l-2.1875 0z" fill-rule="nonzero"/><path fill="#efefef" d="m628.7782 169.25984l0 0c0 -12.080688 9.793335 -21.874008 21.874023 -21.874008q10.937012 0 21.874023 0q0 10.936996 0 21.874008l0 0c0 12.080688 -9.793335 21.874023 -21.874023 21.874023l0 0c-12.080688 0 -21.874023 -9.793335 -21.874023 -21.874023z" fill-rule="evenodd"/><path stroke="#666666" stroke-width="1.0" stroke-linejoin="round" stroke-linecap="butt" d="m628.7782 169.25984l0 0c0 -12.080688 9.793335 -21.874008 21.874023 -21.874008q10.937012 0 21.874023 0q0 10.936996 0 21.874008l0 0c0 12.080688 -9.793335 21.874023 -21.874023 21.874023l0 0c-12.080688 0 -21.874023 -9.793335 -21.874023 -21.874023z" fill-rule="evenodd"/><path fill="#000000" fill-opacity="0.0" d="m624.44226 134.09973l67.18109 0l0 28.125992l-67.18109 0z" fill-rule="evenodd"/><path fill="#000000" d="m635.2079 171.41599q-0.375 0 -0.640625 -0.203125q-0.25 -0.203125 -0.28125 -0.515625q-0.03125 -0.328125 0.203125 -0.65625l5.109375 -6.84375l0 0.765625l-4.8125 -6.484375q-0.25 -0.359375 -0.21875 -0.671875q0.03125 -0.328125 0.265625 -0.53125q0.25 -0.203125 0.609375 -0.203125q0.328125 0 0.5625 0.140625q0.25 0.140625 0.484375 0.5l4.265625 5.828125l-0.609375 0l4.21875 -5.828125q0.234375 -0.359375 0.46875 -0.5q0.25 -0.140625 0.59375 -0.140625q0.390625 0 0.625 0.203125q0.25 0.203125 0.28125 0.53125q0.03125 0.3125 -0.25 0.671875l-4.8125 6.484375l0 -0.765625l5.09375 6.84375q0.234375 0.328125 0.203125 0.65625q-0.015625 0.3125 -0.265625 0.515625q-0.25 0.203125 -0.65625 0.203125q-0.28125 0 -0.546875 -0.15625q-0.25 -0.15625 -0.5 -0.484375l-4.546875 -6.21875l0.75 0l-4.515625 6.21875q-0.265625 0.328125 -0.53125 0.484375q-0.25 0.15625 -0.546875 0.15625z" fill-rule="nonzero"/><path fill="#000000" d="m652.881 163.88474q-1.515625 0 -2.5625 -0.578125q-1.046875 -0.59375 -1.59375 -1.671875q-0.53125 -1.078125 -0.53125 -2.5625q0 -1.125 0.3125 -2.0q0.3125 -0.890625 0.890625 -1.515625q0.59375 -0.640625 1.4375 -0.96875q0.859375 -0.34375 1.921875 -0.34375q0.828125 0 1.59375 0.21875q0.78125 0.21875 1.421875 0.71875q0.15625 0.109375 0.203125 0.28125q0.046875 0.15625 0 0.3125q-0.03125 0.15625 -0.15625 0.28125q-0.109375 0.125 -0.28125 0.140625q-0.15625 0.015625 -0.34375 -0.09375q-0.546875 -0.40625 -1.140625 -0.578125q-0.59375 -0.171875 -1.296875 -0.171875q-1.046875 0 -1.78125 0.4375q-0.734375 0.421875 -1.109375 1.265625q-0.359375 0.828125 -0.359375 2.015625q0 1.828125 0.859375 2.78125q0.859375 0.9375 2.546875 0.9375q0.625 0 1.21875 -0.125q0.59375 -0.125 1.140625 -0.328125l-0.265625 0.65625l0 -3.203125l-1.8125 0q-0.234375 0 -0.375 -0.125q-0.140625 -0.140625 -0.140625 -0.375q0 -0.21875 0.140625 -0.34375q0.140625 -0.125 0.375 -0.125l2.359375 0q0.25 0 0.375 0.140625q0.140625 0.125 0.140625 0.390625l0 3.421875q0 0.21875 -0.078125 0.375q-0.078125 0.140625 -0.265625 0.203125q-0.5625 0.234375 -1.34375 0.390625q-0.765625 0.140625 -1.5 0.140625z" fill-rule="nonzero"/><path fill="#000000" d="m662.50323 182.43161q-1.15625 0 -1.9375 -0.40625q-0.765625 -0.40625 -1.140625 -1.1875q-0.375 -0.78125 -0.375 -1.921875l0 -4.8125l-1.25 0q-0.359375 0 -0.5625 -0.171875q-0.1875 -0.1875 -0.1875 -0.5q0 -0.34375 0.1875 -0.515625q0.203125 -0.171875 0.5625 -0.171875l1.25 0l0 -2.140625q0 -0.4375 0.234375 -0.65625q0.234375 -0.234375 0.65625 -0.234375q0.4375 0 0.65625 0.234375q0.21875 0.21875 0.21875 0.65625l0 2.140625l2.375 0q0.375 0 0.5625 0.171875q0.203125 0.171875 0.203125 0.515625q0 0.3125 -0.203125 0.5q-0.1875 0.171875 -0.5625 0.171875l-2.375 0l0 4.65625q0 1.078125 0.453125 1.625q0.453125 0.546875 1.484375 0.546875q0.375 0 0.625 -0.0625q0.265625 -0.078125 0.453125 -0.078125q0.171875 -0.015625 0.296875 0.125q0.140625 0.125 0.140625 0.5q0 0.28125 -0.09375 0.5q-0.09375 0.21875 -0.34375 0.296875q-0.234375 0.09375 -0.625 0.15625q-0.390625 0.0625 -0.703125 0.0625z" fill-rule="nonzero"/><path fill="#000000" fill-opacity="0.0" d="m675.38385 110.39436l146.01575 0l0 59.370087" fill-rule="evenodd"/><path stroke="#38761d" stroke-width="2.0" stroke-linejoin="round" stroke-linecap="butt" stroke-dasharray="8.0,6.0" d="m675.38385 110.39436l146.01575 0l0 59.370087" fill-rule="evenodd"/><path fill="#000000" fill-opacity="0.0" d="m675.3884 165.12335l69.24414 0l0 22.803162l69.24408 0" fill-rule="evenodd"/><path stroke="#38761d" stroke-width="2.0" stroke-linejoin="round" stroke-linecap="butt" stroke-dasharray="8.0,6.0" d="m675.3884 165.12335l69.24414 0l0 22.803162l69.24408 0" fill-rule="evenodd"/><path fill="#000000" fill-opacity="0.0" d="m405.68896 326.7244l-86.33469 0l0 -146.85027l134.17722 0l0 -52.99224" fill-rule="evenodd"/><path stroke="#000000" stroke-width="2.0" stroke-linejoin="round" stroke-linecap="butt" d="m405.68896 326.7244l-86.33469 0l0 -146.85025l134.17722 0l0 -40.99225" fill-rule="evenodd"/><path fill="#000000" stroke="#000000" stroke-width="2.0" stroke-linecap="butt" d="m456.83496 138.88188l-3.3034668 -9.076187l-3.3034668 9.076187z" fill-rule="evenodd"/><path fill="#000000" fill-opacity="0.0" d="m554.6483 95.22835l74.14172 74.04724" fill-rule="evenodd"/><path stroke="#000000" stroke-width="2.0" stroke-linejoin="round" stroke-linecap="butt" d="m554.6483 95.22835l74.14172 74.04724" fill-rule="evenodd"/><path fill="#000000" fill-opacity="0.0" d="m479.12204 295.48032l2.0787354 -169.00787" fill-rule="evenodd"/><path stroke="#000000" stroke-width="2.0" stroke-linejoin="round" stroke-linecap="butt" d="m479.12204 295.48032l1.9311523 -157.00879" fill-rule="evenodd"/><path fill="#000000" stroke="#000000" stroke-width="2.0" stroke-linecap="butt" d="m484.3564 138.51216l-3.1915894 -9.116135l-3.4148254 9.034882z" fill-rule="evenodd"/><path fill="#000000" fill-opacity="0.0" d="m839.5617 213.61154l-0.5039673 82.48819" fill-rule="evenodd"/><path stroke="#000000" stroke-width="1.0" stroke-linejoin="round" stroke-linecap="butt" d="m839.5617 213.61154l-0.46728516 76.48831" fill-rule="evenodd"/><path fill="#000000" stroke="#000000" stroke-width="1.0" stroke-linecap="butt" d="m837.4427 290.08975l1.6239624 4.5480957l1.6794434 -4.527893z" fill-rule="evenodd"/><path fill="#efefef" d="m605.9055 308.42834l0 0c0 -6.8160095 5.5254517 -12.341461 12.341431 -12.341461l122.18323 0c3.2731934 0 6.4122925 1.3002625 8.726746 3.6147156c2.3144531 2.3144836 3.614746 5.453583 3.614746 8.726746l0 49.36432c0 6.8160095 -5.5254517 12.341461 -12.341492 12.341461l-122.18323 0c-6.815979 0 -12.341431 -5.5254517 -12.341431 -12.341461z" fill-rule="evenodd"/><path stroke="#666666" stroke-width="1.0" stroke-linejoin="round" stroke-linecap="butt" d="m605.9055 308.42834l0 0c0 -6.8160095 5.5254517 -12.341461 12.341431 -12.341461l122.18323 0c3.2731934 0 6.4122925 1.3002625 8.726746 3.6147156c2.3144531 2.3144836 3.614746 5.453583 3.614746 8.726746l0 49.36432c0 6.8160095 -5.5254517 12.341461 -12.341492 12.341461l-122.18323 0c-6.815979 0 -12.341431 -5.5254517 -12.341431 -12.341461z" fill-rule="evenodd"/><path fill="#000000" d="m654.6021 328.7505l0 -12.21875l1.796875 0l0 10.671875l6.0 0l0 1.546875l-7.796875 0zm12.752563 0.15625q-1.15625 0 -2.03125 -0.53125q-0.859375 -0.546875 -1.34375 -1.5625q-0.46875 -1.03125 -0.46875 -2.421875q0 -1.421875 0.46875 -2.421875q0.484375 -1.015625 1.34375 -1.5625q0.875 -0.546875 2.03125 -0.546875q1.140625 0 1.984375 0.578125q0.859375 0.5625 1.140625 1.546875l-0.1875 0l0.171875 -1.96875l1.6875 0q-0.046875 0.53125 -0.09375 1.0625q-0.046875 0.53125 -0.046875 1.03125l0 6.640625l-1.75 0l0 -1.9375l0.203125 0q-0.28125 0.96875 -1.140625 1.53125q-0.859375 0.5625 -1.96875 0.5625zm0.4375 -1.375q1.125 0 1.8125 -0.796875q0.6875 -0.796875 0.6875 -2.34375q0 -1.5625 -0.6875 -2.34375q-0.6875 -0.796875 -1.8125 -0.796875q-1.140625 0 -1.828125 0.796875q-0.6875 0.78125 -0.6875 2.34375q0 1.546875 0.671875 2.34375q0.6875 0.796875 1.84375 0.796875zm10.16217 1.375q-1.421875 0 -2.15625 -0.765625q-0.71875 -0.78125 -0.71875 -2.3125l0 -4.453125l-1.6875 0l0 -1.359375l1.6875 0l0 -2.296875l1.75 -0.46875l0 2.765625l2.4375 0l0 1.359375l-2.4375 0l0 4.296875q0 0.96875 0.34375 1.390625q0.359375 0.40625 1.015625 0.40625q0.328125 0 0.578125 -0.0625q0.25 -0.0625 0.453125 -0.140625l0 1.421875q-0.25 0.09375 -0.609375 0.15625q-0.34375 0.0625 -0.65625 0.0625zm6.843994 0q-2.109375 0 -3.328125 -1.1875q-1.203125 -1.203125 -1.203125 -3.3125q0 -1.375 0.53125 -2.390625q0.53125 -1.03125 1.46875 -1.59375q0.9375 -0.5625 2.1875 -0.5625q1.234375 0 2.0625 0.53125q0.828125 0.515625 1.265625 1.46875q0.4375 0.9375 0.4375 2.21875l0 0.546875l-6.578125 0l0 -1.0l5.375 0l-0.28125 0.21875q0 -1.296875 -0.59375 -2.015625q-0.578125 -0.71875 -1.671875 -0.71875q-1.203125 0 -1.875 0.84375q-0.65625 0.84375 -0.65625 2.3125l0 0.171875q0 1.546875 0.75 2.328125q0.765625 0.765625 2.15625 0.765625q0.75 0 1.421875 -0.203125q0.671875 -0.21875 1.28125 -0.734375l0.5625 1.203125q-0.609375 0.53125 -1.46875 0.828125q-0.859375 0.28125 -1.84375 0.28125zm5.4298706 -0.15625l0 -6.640625q0 -0.5 -0.046875 -1.03125q-0.03125 -0.53125 -0.09375 -1.0625l1.703125 0l0.15625 1.84375l-0.203125 0q0.390625 -0.96875 1.21875 -1.484375q0.84375 -0.515625 1.921875 -0.515625q1.546875 0 2.328125 0.859375q0.796875 0.84375 0.796875 2.625l0 5.40625l-1.75 0l0 -5.296875q0 -1.171875 -0.46875 -1.671875q-0.453125 -0.515625 -1.390625 -0.515625q-1.109375 0 -1.765625 0.6875q-0.65625 0.6875 -0.65625 1.84375l0 4.953125l-1.75 0zm13.666138 0.15625q-1.421875 0 -2.15625 -0.765625q-0.71875 -0.78125 -0.71875 -2.3125l0 -4.453125l-1.6875 0l0 -1.359375l1.6875 0l0 -2.296875l1.75 -0.46875l0 2.765625l2.4375 0l0 1.359375l-2.4375 0l0 4.296875q0 0.96875 0.34375 1.390625q0.359375 0.40625 1.015625 0.40625q0.328125 0 0.578125 -0.0625q0.25 -0.0625 0.453125 -0.140625l0 1.421875q-0.25 0.09375 -0.609375 0.15625q-0.34375 0.0625 -0.65625 0.0625z" fill-rule="nonzero"/><path fill="#000000" d="m626.3574 349.75052l0 -12.21875l4.234375 0q2.0625 0 3.484375 0.71875q1.4375 0.703125 2.171875 2.0625q0.734375 1.359375 0.734375 3.328125q0 1.9375 -0.734375 3.3125q-0.734375 1.359375 -2.171875 2.078125q-1.421875 0.71875 -3.484375 0.71875l-4.234375 0zm1.796875 -1.5l2.328125 0q2.359375 0 3.5 -1.140625q1.15625 -1.15625 1.15625 -3.46875q0 -2.328125 -1.15625 -3.453125q-1.140625 -1.140625 -3.5 -1.140625l-2.328125 0l0 9.203125zm11.112244 1.5l0 -8.734375l1.75 0l0 8.734375l-1.75 0zm-0.140625 -10.546875l0 -1.828125l2.03125 0l0 1.828125l-2.03125 0zm7.455261 10.703125q-1.09375 0 -2.015625 -0.28125q-0.90625 -0.28125 -1.515625 -0.78125l0.53125 -1.1875q0.640625 0.484375 1.421875 0.734375q0.78125 0.234375 1.59375 0.234375q0.953125 0 1.4375 -0.328125q0.484375 -0.34375 0.484375 -0.9375q0 -0.453125 -0.3125 -0.71875q-0.296875 -0.28125 -0.984375 -0.421875l-1.671875 -0.328125q-1.09375 -0.25 -1.671875 -0.828125q-0.578125 -0.59375 -0.578125 -1.515625q0 -0.78125 0.421875 -1.390625q0.4375 -0.609375 1.21875 -0.953125q0.796875 -0.34375 1.84375 -0.34375q0.96875 0 1.796875 0.28125q0.84375 0.28125 1.390625 0.796875l-0.546875 1.15625q-0.546875 -0.453125 -1.21875 -0.703125q-0.671875 -0.25 -1.359375 -0.25q-0.984375 0 -1.453125 0.375q-0.453125 0.359375 -0.453125 0.9375q0 0.453125 0.28125 0.75q0.28125 0.28125 0.90625 0.4375l1.671875 0.328125q1.171875 0.234375 1.75 0.796875q0.59375 0.546875 0.59375 1.484375q0 0.8125 -0.453125 1.421875q-0.4375 0.609375 -1.234375 0.921875q-0.796875 0.3125 -1.875 0.3125zm9.45752 0q-1.3125 0 -2.296875 -0.546875q-0.96875 -0.546875 -1.5 -1.578125q-0.53125 -1.03125 -0.53125 -2.453125q0 -1.40625 0.53125 -2.40625q0.546875 -1.0 1.515625 -1.53125q0.96875 -0.53125 2.28125 -0.53125q0.84375 0 1.640625 0.296875q0.8125 0.28125 1.328125 0.796875l-0.578125 1.234375q-0.484375 -0.46875 -1.09375 -0.703125q-0.59375 -0.234375 -1.171875 -0.234375q-1.25 0 -1.96875 0.796875q-0.703125 0.796875 -0.703125 2.296875q0 1.53125 0.703125 2.34375q0.71875 0.8125 1.96875 0.8125q0.546875 0 1.15625 -0.21875q0.609375 -0.21875 1.109375 -0.703125l0.578125 1.234375q-0.546875 0.515625 -1.359375 0.8125q-0.796875 0.28125 -1.609375 0.28125zm4.7872925 -0.15625l0 -6.5625q0 -0.546875 -0.03125 -1.09375q-0.015625 -0.546875 -0.078125 -1.078125l1.703125 0l0.1875 2.25l-0.28125 0q0.171875 -0.8125 0.59375 -1.34375q0.421875 -0.546875 1.015625 -0.796875q0.59375 -0.265625 1.25 -0.265625q0.28125 0 0.46875 0.03125q0.1875 0.015625 0.390625 0.078125l-0.015625 1.5625q-0.296875 -0.125 -0.515625 -0.15625q-0.21875 -0.03125 -0.53125 -0.03125q-0.765625 0 -1.3125 0.34375q-0.53125 0.34375 -0.8125 0.921875q-0.265625 0.5625 -0.265625 1.21875l0 4.921875l-1.765625 0zm6.563904 0l0 -8.734375l1.75 0l0 8.734375l-1.75 0zm-0.140625 -10.546875l0 -1.828125l2.03125 0l0 1.828125l-2.03125 0zm4.4553223 10.546875l0 -6.640625q0 -0.5 -0.046875 -1.03125q-0.03125 -0.53125 -0.09375 -1.0625l1.703125 0l0.15625 1.84375l-0.203125 0q0.359375 -0.953125 1.109375 -1.46875q0.75 -0.53125 1.8125 -0.53125q1.078125 0 1.75 0.515625q0.6875 0.515625 0.953125 1.5625l-0.28125 0q0.34375 -0.953125 1.171875 -1.515625q0.84375 -0.5625 1.9375 -0.5625q1.453125 0 2.171875 0.859375q0.734375 0.84375 0.734375 2.625l0 5.40625l-1.75 0l0 -5.3125q0 -1.15625 -0.390625 -1.65625q-0.390625 -0.515625 -1.25 -0.515625q-1.015625 0 -1.609375 0.703125q-0.578125 0.6875 -0.578125 1.859375l0 4.921875l-1.75 0l0 -5.3125q0 -1.15625 -0.390625 -1.65625q-0.390625 -0.515625 -1.25 -0.515625q-1.015625 0 -1.59375 0.703125q-0.5625 0.6875 -0.5625 1.859375l0 4.921875l-1.75 0zm15.387268 0l0 -8.734375l1.75 0l0 8.734375l-1.75 0zm-0.140625 -10.546875l0 -1.828125l2.03125 0l0 1.828125l-2.03125 0zm4.4553223 10.546875l0 -6.640625q0 -0.5 -0.046875 -1.03125q-0.03125 -0.53125 -0.09375 -1.0625l1.703125 0l0.15625 1.84375l-0.203125 0q0.390625 -0.96875 1.21875 -1.484375q0.84375 -0.515625 1.921875 -0.515625q1.546875 0 2.328125 0.859375q0.796875 0.84375 0.796875 2.625l0 5.40625l-1.75 0l0 -5.296875q0 -1.171875 -0.46875 -1.671875q-0.453125 -0.515625 -1.390625 -0.515625q-1.109375 0 -1.765625 0.6875q-0.65625 0.6875 -0.65625 1.84375l0 4.953125l-1.75 0zm13.619263 0.15625q-1.15625 0 -2.03125 -0.53125q-0.859375 -0.546875 -1.34375 -1.5625q-0.46875 -1.03125 -0.46875 -2.421875q0 -1.421875 0.46875 -2.421875q0.484375 -1.015625 1.34375 -1.5625q0.875 -0.546875 2.03125 -0.546875q1.140625 0 1.984375 0.578125q0.859375 0.5625 1.140625 1.546875l-0.1875 0l0.171875 -1.96875l1.6875 0q-0.046875 0.53125 -0.09375 1.0625q-0.046875 0.53125 -0.046875 1.03125l0 6.640625l-1.75 0l0 -1.9375l0.203125 0q-0.28125 0.96875 -1.140625 1.53125q-0.859375 0.5625 -1.96875 0.5625zm0.4375 -1.375q1.125 0 1.8125 -0.796875q0.6875 -0.796875 0.6875 -2.34375q0 -1.5625 -0.6875 -2.34375q-0.6875 -0.796875 -1.8125 -0.796875q-1.140625 0 -1.828125 0.796875q-0.6875 0.78125 -0.6875 2.34375q0 1.546875 0.671875 2.34375q0.6875 0.796875 1.84375 0.796875zm10.162109 1.375q-1.421875 0 -2.15625 -0.765625q-0.71875 -0.78125 -0.71875 -2.3125l0 -4.453125l-1.6875 0l0 -1.359375l1.6875 0l0 -2.296875l1.75 -0.46875l0 2.765625l2.4375 0l0 1.359375l-2.4375 0l0 4.296875q0 0.96875 0.34375 1.390625q0.359375 0.40625 1.015625 0.40625q0.328125 0 0.578125 -0.0625q0.25 -0.0625 0.453125 -0.140625l0 1.421875q-0.25 0.09375 -0.609375 0.15625q-0.34375 0.0625 -0.65625 0.0625zm6.562805 0q-1.3125 0 -2.265625 -0.546875q-0.953125 -0.546875 -1.46875 -1.5625q-0.515625 -1.015625 -0.515625 -2.40625q0 -1.40625 0.515625 -2.421875q0.515625 -1.015625 1.46875 -1.5625q0.953125 -0.546875 2.265625 -0.546875q1.296875 0 2.25 0.546875q0.96875 0.546875 1.5 1.5625q0.53125 1.015625 0.53125 2.421875q0 1.390625 -0.53125 2.40625q-0.53125 1.015625 -1.5 1.5625q-0.953125 0.546875 -2.25 0.546875zm0 -1.375q1.140625 0 1.8125 -0.796875q0.671875 -0.796875 0.671875 -2.34375q0 -1.5625 -0.671875 -2.34375q-0.671875 -0.796875 -1.8125 -0.796875q-1.125 0 -1.8125 0.796875q-0.671875 0.78125 -0.671875 2.34375q0 1.546875 0.65625 2.34375q0.671875 0.796875 1.828125 0.796875zm6.286316 1.21875l0 -6.5625q0 -0.546875 -0.03125 -1.09375q-0.015625 -0.546875 -0.078125 -1.078125l1.703125 0l0.1875 2.25l-0.28125 0q0.171875 -0.8125 0.59375 -1.34375q0.421875 -0.546875 1.015625 -0.796875q0.59375 -0.265625 1.25 -0.265625q0.28125 0 0.46875 0.03125q0.1875 0.015625 0.390625 0.078125l-0.015625 1.5625q-0.296875 -0.125 -0.515625 -0.15625q-0.21875 -0.03125 -0.53125 -0.03125q-0.765625 0 -1.3125 0.34375q-0.53125 0.34375 -0.8125 0.921875q-0.265625 0.5625 -0.265625 1.21875l0 4.921875l-1.765625 0z" fill-rule="nonzero"/><path fill="#ffffff" d="m653.65356 242.86351l0 0c0 -14.185455 11.499573 -25.685028 25.684998 -25.685028l0 0c6.812134 0 13.345215 2.7060852 18.16211 7.5229645c4.8168335 4.8168793 7.522949 11.349976 7.522949 18.162064l0 0c0 14.185471 -11.499573 25.685043 -25.685059 25.685043l0 0c-14.185425 0 -25.684998 -11.499573 -25.684998 -25.685043z" fill-rule="evenodd"/><path stroke="#666666" stroke-width="2.0" stroke-linejoin="round" stroke-linecap="butt" d="m653.65356 242.86351l0 0c0 -14.185455 11.499573 -25.685028 25.684998 -25.685028l0 0c6.812134 0 13.345215 2.7060852 18.16211 7.5229645c4.8168335 4.8168793 7.522949 11.349976 7.522949 18.162064l0 0c0 14.185471 -11.499573 25.685043 -25.685059 25.685043l0 0c-14.185425 0 -25.684998 -11.499573 -25.684998 -25.685043z" fill-rule="evenodd"/><path fill="#000000" d="m680.38025 236.42976l0 6.25l5.96875 0l0 1.984375l-5.96875 0l0 6.3125l-2.140625 0l0 -6.3125l-5.9375 0l0 -1.984375l5.9375 0l0 -6.25l2.140625 0z" fill-rule="nonzero"/><path fill="#000000" fill-opacity="0.0" d="m679.33856 268.54855l0 27.527557" fill-rule="evenodd"/><path stroke="#000000" stroke-width="1.0" stroke-linejoin="round" stroke-linecap="butt" d="m679.33856 268.54855l0 21.527557" fill-rule="evenodd"/><path fill="#000000" stroke="#000000" stroke-width="1.0" stroke-linecap="butt" d="m677.6868 290.0761l1.6517334 4.5381165l1.6517334 -4.5381165z" fill-rule="evenodd"/><path fill="#000000" fill-opacity="0.0" d="m280.0551 95.22835l24.114197 0l0 146.83464l353.08264 0" fill-rule="evenodd"/><path stroke="#1155cc" stroke-width="2.0" stroke-linejoin="round" stroke-linecap="butt" stroke-dasharray="8.0,6.0" d="m280.0551 95.22835l24.114197 0l0 146.83464l345.50262 0" fill-rule="evenodd"/><path fill="#1155cc" stroke="#1155cc" stroke-width="2.0" stroke-linecap="butt" d="m656.25195 242.06299c0 1.8170166 -1.4729614 3.2900085 -3.289978 3.2900085c-1.8170166 0 -3.289978 -1.472992 -3.289978 -3.2900085c0 -1.8170166 1.4729614 -3.2899933 3.289978 -3.2899933c1.8170166 0 3.289978 1.4729767 3.289978 3.2899933z" fill-rule="nonzero"/><path fill="#000000" fill-opacity="0.0" d="m479.12204 295.48032l0 -13.466034l182.04727 0l0 -20.990662" fill-rule="evenodd"/><path stroke="#1155cc" stroke-width="2.0" stroke-linejoin="round" stroke-linecap="butt" stroke-dasharray="8.0,6.0" d="m479.12204 295.48032l0 -13.466034l182.04727 0l0 -20.990662" fill-rule="evenodd"/><path fill="#000000" fill-opacity="0.0" d="m331.24933 326.75067l19.791779 0l0 -71.18112l302.60196 0" fill-rule="evenodd"/><path stroke="#1155cc" stroke-width="2.0" stroke-linejoin="round" stroke-linecap="butt" stroke-dasharray="8.0,6.0" d="m331.24933 326.75067l19.791779 0l0 -71.18112l302.60196 0" fill-rule="evenodd"/></g></svg>